<?xml version="1.0" encoding="UTF-8"?><svg id="Layer_2" xmlns="http://www.w3.org/2000/svg" viewBox="0 0 332.29 123.66"><defs><style>.cls-1{fill:#fff;}.cls-1,.cls-2{stroke-width:0px;}.cls-2{fill:#f1f1f2;}</style></defs><g id="Layer_1-2"><path class="cls-1" d="m162.31,93.68c-.07.32-.21.59-.4.86-.8,1.18-1.64,2.35-2.37,3.58-.82,1.39-1.94,2.57-2.53,4.14-.29.78-.81,1.53-1.22,2.3-1.03,1.92-2.33,3.69-3.23,5.7-.81,1.82-1.95,3.46-2.87,5.22-.18.35-.36.71-.55,1.06-.06.11-.14.21-.28.18-.17-.04-.2-.19-.18-.33.02-.14.06-.28.13-.39.74-1.27,1.11-2.72,1.95-3.94.19-.27.34-.57.23-1.04-.28.38-.5.68-.71.98-.86,1.22-1.15,2.82-2.47,3.75-.04.03-.08.11-.07.16.18.99-.59,1.67-.92,2.45-.8,1.85-1.9,3.58-2.96,5.31h1.68c.03-.31-.21-.68.11-.91.49-.35.51-.82.45-1.33-.05-.43.25-.7.47-1,.06-.08.15-.14.26-.1.11.04.12.15.14.25.05.38-.19.58-.46.78-.11.08-.22.2-.12.35.07.11.19.09.26.02.29-.29.68-.47.91-.86.62-1.06.85-2.33,1.8-3.2.05-.05.1-.14.1-.21.02-.78.58-1.34.87-1.99.57-1.26,1.55-2.3,2.14-3.57.26-.57.54-1.24,1.39-1.21.21,0,.29-.17.33-.37.14-.65.53-1.19.81-1.77.38-.79,1.11-1.4,1.3-2.27.14-.63.19-1.2.92-1.52.31-.14.43-.69.65-1.05.22-.36.45-.71.97-.67.34.03.32-.21.29-.45-.06-.47-.02-.89.52-1.06.17-.06.27-.19.15-.37-.26-.39.01-.65.23-.9.3-.35.64-.66-.11-.88-.18-.05-.21-.23-.17-.4.05-.19.17-.32.37-.35.14-.02.24.05.25.2.03.7.34.33.59.16.3-.2.57-.44.75-.76.82-1.48,1.73-2.9,2.4-4.46.1-.24.19-.44-.04-.65-.42-.37-1.65.01-1.77.56Z"/><path class="cls-1" d="m89.06,111.09c.09-1.04.57-1.95.97-2.89.2-.46.44-.89.98-1.05.24-.07.37-.27.37-.55.01-.59.22-1.13.45-1.66.26-.22.49-.47.46-.85.04-.08.08-.16.12-.24.4-.15.35-.51.37-.83h0c.48-.15.57-.73.97-.92.39-.18.44-.47.46-.82.01-.18-.06-.36.04-.53.35-.6.71-1.19,1.05-1.79.49-.88,1.08-1.7,1.43-2.66h0c.31-.18.42-.52.6-.79.31-.47.54-1.06,1.02-1.33.37-.21.28-.37.19-.63h0c.2-.16.41-.31.34-.62h0c.12-.18.27-.35.24-.59h0c.31-.36.61-.73.73-1.2.16-.07.23-.21.31-.35,1.1-1.85,2.19-3.71,3.29-5.56.6-1.01,1.22-2.02,1.91-2.98.28-.4.57-.79.85-1.19,0,0,0,0,0,0,.24-.12.38-.29.33-.57-.04-.21.05-.36.22-.45.69-.39.98-1.13,1.42-1.72,1.08-1.44,2.04-2.97,3.05-4.47.13-.15.3-.28.39-.45.45-.78,1.3-1.32,1.4-2.3.46-.1.63-.47.38-.82h0c-.08-.05-.17-.09-.25-.14h0s0,0,0,0c.26-.29.43-.68.79-.89.17.27-.09.44-.08.82,1.48-1.92,2.74-3.79,3.72-5.85-.59.47-.85,1.19-1.36,1.7-.41.41-.92.57-1.5.49h0c.26-.18.47-.38.48-.72.08-.08.16-.16.24-.24.06-.04.15-.07.19-.13.59-.93,1.1-1.92,1.95-2.66.12-.1.08-.21.03-.32.04-.07.09-.14.13-.2.31-.33.68-.61.71-1.12.24-.35.48-.7.73-1.05h0c.23-.07.32-.29.44-.46.46-.61.9-1.23,1.34-1.85.56-1.14,1.48-2.04,2.16-3.11.65-1.01,1.31-2.02,1.98-3.02.66-.98,1.34-1.95,1.92-2.99.55-1,1.47-1.7,2.13-2.62.35-.49.65-1.09,1.3-1.33.26-.1.49-.33.35-.59-.13-.24-.38.03-.59.06-.22.03-.4.38-.63.17-.43-.4-.76-.17-.99.17-.37.55-.91.82-1.48,1.05-.33.15-.61-.11-.95-.1-.9.03-1.46.33-1.69,1.21-.02.07-.09.13-.14.19-.65.33-1.29.7-1.96.98-1.74.72-3.5,1.42-5.13,2.38-.14-.02-.24.06-.35.13-.47.17-1.02.02-1.46.35-.24.08-.34.29-.46.49-.72.26-1.46.46-2.07.95-.17-.02-.32.04-.44.15-.09.03-.17.06-.26.08-.3.08-.43-.56-.8-.19-.22.22-.42.46-.63.68h0c-.66.21-1.2.64-1.81.94-.97.36-1.82.95-2.72,1.45-.42.24-.78.62-1.32.64-.18-.02-.35-.04-.52-.05-.09-.2.33-.34.06-.52-.15-.1-.3.04-.42.15-.75.73-1.69,1.15-2.63,1.55-.51.22-.91.55-1.32.89-.44.22-.89.43-1.32.68-1.14.65-2.26,1.33-3.39,1.98-.68.39-1.33.92-2.2.99-.45.03-.87.36-1.3.56-.29.14-.34.5-.65.68-.66.38-1.4.56-2.09.82-1.04.39-1.88,1.13-2.95,1.44-.52.15-.87.68-1.46.75-.29.04-.64.49-.82.27-.21-.25.12-.66.23-.99.05-.17.19-.3.27-.46.27-.51.52-1.02.69-1.57h0c.24-.36.5-.73.47-1.2,0,0,0,0,0,0,.05-.07.1-.15.15-.22.12-.32.41-.58.34-.97.06-.05.16-.08.18-.14.31-.92.87-1.72,1.29-2.59.62-1.3,1.27-2.6,2.01-3.84.75-1.24,1.42-2.53,2.14-3.79.13-.22.15-.44.11-.68,0,0,0,0,.01,0,0,0,0-.01,0-.02.14-.13.29-.23.39-.41,1.22-2.18,2.39-4.38,3.43-6.65.66-.77.86-1.77,1.3-2.64.13-.29.25-.58.38-.88.6-1.43,1.18-2.86,1.87-4.24.42-.84.91-1.67,1.24-2.56.24-.38.55-.73.59-1.2,0,0,0,0,0,0,0,0,0,0,0,0h0s.04-.05.06-.07c.27-.26.34-.58.24-.95-.02-.07-.04-.14-.03-.19,0,0,0,0,0-.01.02-.05.06-.07.18-.05.4.07.47-.24.55-.49.19-.63.55-1.22.91-1.71.31-.42.47-.85.71-1.31-.41-.04-.59.34-.91.35.48-.92.95-1.83,1.43-2.75.05.03.12.04.15.08.48.51.55.49.77-.17.22-.65.55-1.23.95-1.8.28-.39.61-.83.66-1.36.07-.07.17-.12.21-.2.35-.7.78-1.38,1.01-2.12.14-.43.65-.65.54-1.17.16-.32.32-.65.47-.97.07-.06.18-.11.21-.19.44-1.06.97-2.07,1.59-3.03.2-.48.5-.93.7-1.39.55-1.29,1.31-2.47,1.83-3.77.25-.16.24-.38.16-.63-.04-.13-.1-.33.05-.37.77-.19.66-.89.86-1.41,0,0,0,0,0,0,.51-.55.47-1.2.25-1.83-.17-.47-.54-.73-1.08-.44-.44.12-.65.47-.82.85-.23.14-.36.35-.44.61-.19.58-.42,1.16-.76,1.67-.02.03-.03.05-.03.08-.49.48-.84,1.03-1.08,1.68-.12.33.08.67-.2,1.01-.5.62-.9,1.33-1.34,2.01-.28.48-.56.96-.84,1.43-.22.15-.83-.03-.5.59h0c-.07.13-.14.25-.21.38-.36.16-.65.36-.5.82-.57.63-.91,1.41-1.37,2.11-.5.77-1.04,1.53-1.53,2.31-.7,1.1-1.48,2.13-2.18,3.23-.4.63-.76,1.29-1.28,1.83-.37.41-.71.84-.92,1.35-.13.19-.26.39-.38.58-.28.55-.62,1.06-1,1.54-.88,1.09-1.31,2.44-2.11,3.58-.29.42-.44.93-.37,1.48-.12.27-.12.58-.27.85-.59,1.03-1.06,2.14-1.74,3.13-.96,1.4-1.5,3.06-2.67,4.33-.88.96-1.23,2.27-2.16,3.19-.8,1.48-1.6,2.97-2.4,4.45h0c-.4.41-.71.9-1.14,1.3-.42.39-.53,1.12-.77,1.69h0c-.11.11-.22.23-.32.34-.43.45-.55,1.11-1.02,1.54-.47.43-.64,1.02-.84,1.59,0,0,0,0,0,0-.05.58-.56.97-.62,1.56-.06.66-.17,1.31-.43,1.93-.67.33-.47,1-.6,1.54,0,0,0,0,0,0-.34.39-.47.89-.7,1.34-.51-.18-.2-.47-.07-.69.38-.63.36-.68-.38-.76-.1-.01-.2-.03-.29-.05-.17-.04-.34-.2-.49,0-.13.17-.1.38-.03.57.04.11.11.21.16.32.24.54.1.78-.49.84-.22.02-.44.03-.65.09-.39.11-.41.32-.14.6.45.47.87.47,1.38-.02.09-.09.15-.28.32-.2.16.08.06.25.07.38,0,.07,0,.15-.01.22-.28.22-.5.49-.58.84-.54.8-.82,1.77-1.48,2.51-.5-.18-.84-.1-.91.5-.01.09-.09.18-.15.26-.19.26-.35.49-.14.86.13.23-.04.48-.38.35-.25-.1-.3-.01-.34.22-.07.36-.4.43-.67.15-.11-.11-.16-.27-.25-.4-.08-.12-.2-.22-.35-.12-.14.1-.12.25-.03.37.23.29.36.62.4.98.02.16.07.34-.16.38-.64.11-.62.48-.45.97.08.24.06.51.09.77-.52.06-.28.47-.35.74-.05.15-.1.29-.15.44-.16-.04-.29.03-.32.18-.12.56-.43,1.07-.48,1.65h0s0,0,0,0h0c-.51.15-.4.69-.64,1.01-.87,1.19-1.73,2.39-2.24,3.79-.12.2-.23.4-.35.59-.37.37-.53.86-.74,1.31h0c-.48.19-.63.6-.74,1.05,0,0,.03.02.05.03-.02.07-.04.15-.06.22-.33-.1-.68-.12-.77.29-.11.5-.44.72-.87.85-.17.05-.37.1-.44.28-.18.5-.57.84-.91,1.21,0,0,0,0,0,0-.68.41-.71.63-.15,1.08.57.45.7,1.08.33,1.68-.12.19-.2.39-.26.59-.05.15-.15.32.06.42.17.09.3,0,.4-.15.25-.08.44-.24.51-.47.22-.68.73-1.18,1.12-1.73.37-.5.79-1.06,1.59-1.1.79-.04,1.12-.44,1.27-1.22.04-.23.17-.34.36-.44.21-.11.46-.19.62-.35.97-1,2.09-1.82,3.17-2.67.28-.22.61-.38.73-.76.38-.11.62-.43.93-.63.13-.08.33-.15.44-.02.14.16-.04.28-.13.4-.49.67-1.24,1.06-1.79,1.65-.14.14-.49.21-.28.46.15.17.46-.03.56-.18.39-.62,1.09-.85,1.59-1.32.55-.53,1.2-.9,1.88-1.24.44-.43,1.07-.56,1.63-1.19-.23.81.2.68.49.66.27-.02.5-.3.36-.48-.25-.32-.1-.6-.07-.9h0c.45.14.37-.26.49-.47.18-.04.32-.15.47-.25.53-.34,1.02-.96,1.61-.95.97.02,1.36-.52,1.77-1.18.38,0,.58-.33.87-.49h0s.06,0,.08-.02c.44-.23.94-.34,1.3-.73.05-.04.1-.09.14-.13,1.84-1.12,3.84-1.9,5.77-2.84.29-.07.57-.1.86.08.38.23.67.22.6-.35-.02-.15.03-.27.09-.4.1-.24.04-.36-.24-.26-.13.05-.31.11-.37-.05-.07-.2.14-.26.28-.32.23-.11.45-.28.68.03.19.26.41.16.65-.05-.54-.19-.34-.44-.04-.63.53-.34,1.07-.69,1.63-.97.39-.19.6-.33.15-.68-.08-.06-.12-.16-.18-.24.23-.33.69-.3.93-.62.1.05.28.04.29.17,0,.17-.2.15-.31.21-.18.11-.59.04-.45.4.12.32.46.13.63.04.85-.43,1.69-.87,2.51-1.36.86-.52,1.71-1.09,2.53-1.68.45-.32,1.02-.17,1.45-.5h0c1.02-.24,1.96-.6,2.61-1.48.24-.17.48-.35.72-.52.6-.41.71-.36.83.39-.22.18-.26.54-.6.6-.17.03-.46-.02-.39.28.07.27.33.09.51.13,0,0,0,0,0,0-.07.33-.06.72-.23.97-.41.61-.54,1.31-.76,1.97-.3.9-.7,1.76-1.01,2.66-.47,1.38-1.31,2.61-1.87,3.97-.56,1.36-1.33,2.62-1.79,4.03-.38.3-.4.79-.59,1.18-.49.38-.56.98-.81,1.48-.17.4-.25.89-.54,1.18-.51.51-.64,1.18-.93,1.77-.7,1.44-1.26,2.95-2.02,4.36-.34.25-.26.69-.44,1.02-.71,1.33-1.43,2.66-2.06,4.03-1.08,2.34-2.11,4.71-3.15,7.06-.14.13-.11.3-.12.46-.11.33-.22.66-.33.99-.08.15-.27.28-.17.48.28.57-.07.99-.32,1.43-.15.25-.42.46-.49.73-.2.79-.62,1.46-.98,2.16-.79,1.51-1.58,3.02-2.33,4.55-1.14,2.36-2.28,4.71-3.16,7.18-.83.41-.85,1.15-.8,1.93.07,1.1.76,1.47,1.78.97.51-.69.85-1.46,1.09-2.27.05-.07.07-.18.02-.22,0,0,0-.01-.02-.02,0-.47,0-.93.34-1.35.32-.4.43-.93.64-1.39.28-.62.57-1.3,1.25-1.65h0c.27-.1.71.09.75-.39Zm5.05-15.76s0,0,0,0c0,0,0,0,0,0,0,0,0,.02-.01.03,0,0-.01-.02-.02-.03.01,0,.02,0,.03,0,0,0,0,0,0-.01Zm.34-.22s-.07.04-.1.07c.03-.04.06-.07.1-.07Zm.02-.01h-.02s.01,0,.02-.01c0,0,0,0,0,.01Zm-2.53-31.56s0,0,0,0c0,0,0,0,0,0h0Zm-5.37-5.62s0,0,0,0c0,0,0,0,0,0,0,0,0,0,0,0Z"/><path class="cls-1" d="m189.03,27.04c.16.19.23.37,0,.57-.28.23-.19.35.14.38.78.07,1.2.71,1.01,1.51-.09.39-.1.75.5.64.3-.05.47.13.56.42.21.64.43,1.27.88,1.81.31.38.73.81.78,1.25.13,1.24.77,2.2,1.43,3.17.07.1.19.26.09.31-.55.31-.24.58.01.87.09.1.03.24-.04.33-.15.2-.15.45-.24.66-.23.52-.46,1.07-.82,1.49-.23.26-.44.49-.52.83-.07.27-.19.52-.33.77-.31.58-.52,1.21-.87,1.77-.1.15-.13.39.04.49.22.13.31-.11.39-.26.15-.28.33-.49.67-.54.15-.02.33-.13.29-.26-.24-.67.25-1.1.52-1.57.55-.97,1.13-1.93,1.81-2.81.42-.53.74-1.01.66-1.71-.03-.25.04-.52.05-.77.02-.29-.02-.69-.3-.71-.88-.04-1.08-.65-1.29-1.31-.06-.18-.21-.34-.36-.47-.54-.46-.74-1.06-.76-1.75-.02-.53-.21-.97-.73-1.22-.2-.1-.38-.24-.73-.46.56.07.61-.09.53-.43-.14-.6-.78-.83-.96-1.4-.01-.04-.15-.07-.22-.05-.51.08-.76-.27-.9-.64-.18-.48-.48-.87-.77-1.27-.52-.72-1.12-1.41-1.42-2.27-.11-.3-.3-.56-.65-.73-.05.3.05.5.15.69.47.89.74,1.89,1.42,2.68Z"/><path class="cls-1" d="m72.93,21.57c.24.13.52.21.53.57.02.59.2,1.13.58,1.6.38.47.71.99.8,1.58.11.8.51,1.35,1.12,1.82.14.1.29.27.31.43.12.85.52,1.55,1,2.26.66.99.81,2.28,1.72,3.15.03.03.05.07.05.11.12.78.64,1.3,1.16,1.82.18.18.36.24.59.18.26-.06.31-.28.33-.51.06-.57-.17-1.01-.45-1.5-.63-1.15-2.12-2.13-.93-3.74.08-.11.03-.29-.12-.36-.18-.09-.23.07-.31.18-.35.52-.47.52-.86.03-.82-.99-1.28-2.2-2.02-3.24-.4-.57-.56-1.18-.1-1.82.14-.2.16-.47-.04-.67-.17-.17-.41-.37-.63-.21-.53.37-.73-.15-.98-.36-.3-.26-.04-.55.13-.79.13-.18.27-.34.42-.51.11-.13.34-.2.22-.43-.1-.18-.29-.16-.47-.19-.6-.09-1.23.32-1.73-.09-.29-.02-.43.06-.5.26-.08.21,0,.33.19.43Z"/><path class="cls-1" d="m65.76,55.21c.05-.18-.1-.22-.21-.31-.33-.26-.33-.65.05-.78.53-.18.46-.49.36-.89-.1-.36-.04-.65.37-.82.21-.08.49-.21.51-.46.07-.63.55-.98.87-1.43.35-.49,1.05-.7,1.15-1.39h0s0,0,0,0v-.21c.24-.09.25-.29.25-.5.57-.43,1.31-.4,1.93-.7.48.05.91-.02,1.22-.44,0,0,0,0,0,0,0,0,0,0,0,0,.99-.2,1.95-.48,3-.83-.33-.25-.54-.18-.75-.15-.89.1-1.7.42-2.5.8-.21-.19-.78.02-.66-.56.09-.41.2-.81.29-1.21.25-.17.52-.31.73-.51.24-.22.61-.52.37-.84-.19-.25-.54.04-.8.16-.24.1-.47.21-.71.31-.33.14-.65.33-1.02.12-.16-.26-.43-.31-.68-.29-.52.04-1.03.12-1.52.31-1.36.53-2.58,1.4-4.02,1.76-.16.04-.34.16-.44.3-.37.5-.92.74-1.45,1.01-.76.38-1.45.92-2.28,1.11-.88.2-1.64.69-2.55.88-1.24.26-2.41.87-3.6,1.34-.3.12-.62.06-.92.21-1.51.75-3.15,1.19-4.61,2.05,0,0,0,0,0,0h0c-.24,0-.49,0-.73.01-.03-.01-.07-.02-.1-.03-.11-.27-.24-.38-.39-.04-.09.21-.16.43-.24.65,0,0,0,0,0,0-1.1.48-2.13,1.05-3.35,1.3-1.09.23-2.16.68-3.21,1.1-1.04.42-2.01,1.03-3.15,1.22-.1,0-.2,0-.29,0-.15.02-.33.14-.44-.01-.12-.17.04-.33.11-.49.12-.27.27-.52.4-.78,0,0,0,0,0,0,.39-.57.62-1.2.82-1.85.05-.17.1-.46.25-.45.56.04.4-.36.38-.61-.02-.28.08-.49.2-.72.47-.9,1.06-1.75,1.33-2.76-.34.01-.35.32-.46.53-.3.58-.52,1.19-.92,1.71-.18.24-.21.76-.55.67-.28-.07-.11-.56-.2-.86,0,0,0,0,0,0,.26,0,.43-.11.48-.38.18-.1.23-.3.33-.46.29-.45,0-.91.1-1.36.29-.28.5-.58.58-1.01.06-.38.16-.88.42-1.08.62-.46.79-1.16,1.18-1.74.42-.6.78-1.24,1.08-1.91.19-1.01.84-1.82,1.22-2.74.53-1.29,1.25-2.51,1.89-3.76.3-.28.5-.69.98-.75.11-.02.2-.18.23-.32h0c.08-.08.16-.16.23-.24.33-.13.26-.46.36-.71,0,0,0,0,0,0,0,0,0,0,0,0,.01-.03.02-.07.03-.11.19-.25.28-.55.34-.85.39-.82.84-1.62.75-2.58-.02-.2.05-.39.16-.57.4-.68.78-1.37,1.22-2.02.22-.32.39-.64.42-1.03.78-1.11,1.53-2.24,2.19-3.42.25-.45.44-.96.75-1.34.97-1.19,1.55-2.6,2.45-3.82.41-.56.68-1.21,1.04-1.81.16-.26.39-.48.03-.76-.12-.09-.09-.26,0-.38.07-.09.16-.1.27-.05.46.19.63.08.52-.47-.09-.45.12-.73.35-1.02.15-.19.29-.24.44.04.14.25.27.54.59.64,0,0,0,0,0,0h0c.74.86,1.38,1.81,2.15,2.66.93,1.02,1.69,2.19,2.56,3.27.45.56.81,1.16,1.21,1.74.41.6.68,1.33,1.32,1.78.44.31.45.9.8,1.3.53.61,1.07,1.23,1.44,1.95.07.16.13.34.22.48.65.95,1.26,1.89,1.73,2.96.37.84.77,1.71,1.3,2.48.85,1.22,1.33,2.76,2.84,3.44.15.07.25.21.3.36.19.59.37.37.56,0,.08,0,.16,0,.24,0,.37.14.82.09,1.08.47.07.04.13.11.2.11.21.01.41.33.63.04.22-.29.07-.5-.11-.74-.26-.35-.47-.74-.71-1.1-.09-.15-.14-.28-.01-.44.35-.41.14-.84-.15-1.06-.66-.48-1.05-1.14-1.53-1.76-.72-.92-1.51-1.76-2.11-2.78-.91-1.55-1.74-3.15-2.58-4.74-.45-.89-1.1-1.65-1.53-2.56-.24.5.4.85.12,1.32-.05-.07-.09-.14-.14-.21-.1-.32-.22-.62-.5-.83-.03-.04-.07-.09-.1-.13-.04-.41-.26-.73-.58-.97-.35-.58-.61-1.21-.96-1.78-.98-1.61-1.84-3.29-2.78-4.93-.59-1.04-1.13-2.11-1.78-3.1-.65-.98-1.07-2.08-1.81-2.99-.29-.35.18-.78.04-.96-.15-.19-.65,0-.84-.44-.18-.4-.44-.75-.65-1.13-.21-.38-.34-.88-.93-.73-.56.14-.41.67-.49,1.04-.16.81-.28,1.61-1.18,1.96-.15-.07-.34-.13-.44.02-.31.44-.85.69-1.02,1.24-.1.32-.31.63-.37.93-.12.63-.83,1-.7,1.73.03.19-.17.17-.31.13-.26-.08-.36-.28-.44-.52-.06-.17-.14-.36-.36-.32-.14.03-.21.17-.26.31-.07.21.04.33.22.43.52.28.78.71.77,1.31-.1.23-.11.49-.27.71-.66.91-1.24,1.88-1.81,2.84-.31.52-.52,1.11-1,1.52-.34-.13-.35-.14-.36.22,0,.13-.08.17-.16.22-.2.13-.4.26-.59.41-.2.16-.46.3-.08.57.2.15.02.26-.13.24-.25-.04-.52-.12-.57-.43-.04-.25-.1-.51-.42-.47-.24.03-.48.18-.49.45,0,.27.05.55.43.61.32.05.54.31.57.62.06.61-.3,1.13-.62,1.55-.37.47-.72.89-.73,1.51-.37.76-.81,1.48-1.3,2.17-.33.16-.4.52-.59.79-.54.76-.8.84-1.61.45-.09-.04-.18-.09-.28-.1-.29-.04-.44.15-.51.4-.06.22-.04.42.21.55.66.34.65.34.27,1.02-.07.12-.1.26-.14.39,0,0,0,0,0,0,0,0,0,0,0,0-.48.73-.95,1.46-1.38,2.23-.27.48-.5,1.04-1,1.37-.35-.02-.39.5-.64.45-.84-.15-.95.55-1.05,1-.09.41-.25.4-.53.4-.12,0-.24,0-.36,0-.24,0-.36.14-.45.33-.09.2.06.28.2.36.28.17.16.38,0,.55-.54.6-.89,1.31-1.32,1.99-.07.12-.16.24-.27.31-.27.18-.34.45-.44.75-.23.72-.49,1.46-1.2,1.84-.33.18-.49.37-.56.7-.04.21-.06.5-.34.48-.6-.03-.65.34-.64.77.02.5-.04.91-.56,1.2-.41.23-.3.58.18.73.13.04.12.14.15.23-.04.08-.08.16-.12.24-.75-.21-1.21.13-1.56.76-.09.17-.18.36-.28.52-.35.55-.33,1.26-.8,1.76-.49.52-.69,1.3-1.47,1.55-.14.05-.15.22-.15.36,0,.38-.13.67-.46.91-.25.18-.39.52-.14.78.28.29.49,0,.68-.21.17-.18.33-.48.58-.08-.18.25-.33.52-.37.83,0,0,0,0,0,0,0,.03-.01.05,0,.08-.3.16-.43.43-.5.75,0,0,0,0,0,0-.06.13-.12.26-.18.39-.28.06-.42.29-.55.51-.27.48-.45,1-.76,1.46-.16.24-.42.43-.39.77h0c-.3.21-.48.51-.59.84-.13.09-.11.23-.13.35-.55.65-.91,1.54-1.99,1.61.44.17.4.47.36.77-.04.25-.09.5-.14.75-.02.09-.16.15-.05.26-.74.31-.88,1.09-1.28,1.66,0,.23-.14.4-.25.59-.09.04-.22.05-.26.11-.34.56-.71,1.09-1.08,1.63-.31.45-.47.99-.7,1.5-.46.3-1.01.54-.78,1.27.03.08-.04.19-.07.28-.66,1.16-1.81,1.62-2.97,2.06-.4.15-.67.39-.46.79.21.41.5.09.75-.05.13-.07.29-.22.44-.1.21.17-.02.32-.1.46-.82,1.49-1.89,2.78-3.12,3.94-.25.23-.17.52-.06.73.06.43.23.91.44,1.08.57.49,1.67.15,2.02-.51.28-.54.22-1.17.56-1.68.88-.92,2.05-1.39,3.1-2.06.26.03.52-.17.76-.04.47.25.86-.07,1.26-.17.24-.06.42-.25.69-.1.16.08.31,0,.42-.13.11-.15.1-.3-.02-.43-.14-.16-.21-.33-.2-.54.03-.02.06-.03.09-.03.45.03.64-.29.85-.59.62.07,1.08-.57,1.72-.4.03,0,.08-.03.1-.06.47-.66,1.14-.98,1.88-1.24.2-.07.28-.29.46.05.18.34.52.07.57-.08.17-.58.66-.63,1.1-.73.43-.1.55-.61.93-.71.52-.13.89-.42,1.22-.81.14-.17.35-.24.55-.33.4-.2.92-.16,1.2-.6.12-.07.23-.15.36-.22,1.53-.86,3-1.84,4.58-2.63.44-.17.84-.42,1.2-.72.44.07.63-.37.98-.48.03,0,.07,0,.1-.02.58-.29,1.24-.45,1.72-.93.15-.09.29-.17.44-.26.88-.25,1.64-.77,2.49-1.1.2,0,.49-.11.57-.01.37.41.65.1.98-.03.56-.21.89-.07,1,.43-.33.44-.57.92-.76,1.46-.37,1.02-.54,2.11-.97,3.11-.48,1.13-.94,2.27-1.51,3.36-.43.82-.62,1.72-1.08,2.52-.2.43-.47.83-.55,1.3-.1.55.11.7.62.49.09-.04.17-.07.22-.1.32.5.31.93-.17,1.3-.09.06-.07.26-.11.39,0,.03-.02.06-.03.09-.38.74-1.2,1.29-.95,2.28-.23.1-.43.31-.41.53.06.49-.16.91-.21,1.37,0,0,0,0,0,0-.26,1.12-1.08,2.03-1.25,3.19-.09.58-.4,1.06-.7,1.54-.08.13-.15.29-.16.45-.05,1-.65,1.82-1.07,2.64-.66,1.28-1.07,2.63-1.62,3.93-.48.79-.75,1.67-1.09,2.52-.18.04-.24.18-.29.33-.17.49-.35.98-.53,1.48-.76.84-1.06,1.92-1.52,2.91-.63,1.36-1.46,2.63-1.96,4.05-.64,1.25-1.27,2.51-1.93,3.76-.32.61-.37.61-.88.1-.52-.52-.92-1.12-1.37-1.7-1-1.28-2.18-2.42-3.12-3.76-.58-.83-1.42-1.46-1.88-2.39-.3-.6-.99-.93-1.12-1.65-.29-.39-.6-.75-.97-1.08h0c-.49-1.02-.95-1.34-1.69-1.19-.65-.92-1.42-1.75-1.98-2.74-.66-1.17-1.35-2.33-2.03-3.49-.07-.12-.16-.35-.26-.29-.65.39-.61-.29-.86-.51-.4-.37-.44-1.08-.96-1.26-.64-.23-.79-.74-.99-1.24-.2-.49-.67-.79-1.17-.64-.13.04-.34.09-.27.25.22.45-.06,1.02.35,1.41.25.67.81,1.11,1.26,1.64.1.12.26.19.28.37.13,1,1.07,1.56,1.32,2.52.1.41.47.77.63,1.2.37,1,1,1.82,1.79,2.54.04.04.08.09.12.13-.06.46.24.74.52,1.01.44.42.69.97.93,1.49.25.54.51,1.04.96,1.43.04.32.15.59.47.73h0c.01.24.01.44.26.61.21.14.31.41.16.67-.26.42-.18.71.29.82.32.08.59.21.67.52.14.54.51.88.89,1.23h0s0,0,0,0c.17.7.45,1.37.81,1.98.82,1.39,1.68,2.74,1.73,4.43,0,.33.17.4.42.21.33-.25.58-.18.81.13.07.1.19.2.31.13.43-.24.6.15.85.33,0,0,0,0,0,0-.02.11-.01.29-.19.19-.19-.11-.35-.21-.52.01-.14.2-.13.42-.03.63.1.22.19.44.32.64.42.66.29,1.25-.1,1.89-.31.51-.62,1.05-.78,1.65.25-.06.39-.23.49-.45.18-.4.37-.79.56-1.19.15-.32.43-.6.73-.3.6.58,1.14,1.21,1.33,2.07-.11.28-.22.56-.33.84,0,0,0,0,0,0h0s-.03.03-.04.05c0,.02,0,.04-.01.06.49.01.84.34,1.25.55.2.1.46.19.67,0,.19-.18.13-.41.06-.62-.13-.37-.02-.69.24-.93.58-.55.86-1.29,1.26-1.95.07-.11.08-.29.32-.23.06.28.12.56.18.85.02.11-.02.27.13.3.18.04.24-.12.3-.24.25-.55.56-1.05,1-1.48,0,0,0,0,0,0,0,0,0,0,0,0,0-.06.02-.13.03-.19.12-.84.23-1.68.35-2.52.53-.4.91-.84.92-1.6,0-.55.64-.95.58-1.57,0-.04.06-.11.11-.13.66-.28.74-.92.91-1.5.17-.12.31-.27.37-.48.42-1.11,1.14-2.05,1.66-3.1.11-.22.22-.37.47-.36h0c.41.12.36-.2.37-.42.02-.4-.03-.82.23-1.16.95-1.24,1.42-2.76,2.31-4.03.64-.9.93-2.04,1.92-2.69.06-.04.1-.18.09-.27-.03-.41.19-.71.38-1.04.2-.36.52-.66.59-1.1h0c.12-.18.24-.36.36-.54.57-.9,1.13-1.79,1.7-2.69.09-.13.19-.25.26-.39.28-.49.5-1.12.88-1.43.47-.39.5-.71.4-1.19h0c.83-.6,1.08-1.53,1.43-2.42,0,0,0,0,0,0h0c.37-.49.41-1.18.97-1.55.73-.59.89-1.52,1.32-2.28.42-.61.8-1.24,1.15-1.89.85-1.56,1.79-3.06,2.69-4.58.88-.46.86-1.71,1.83-2.1.02,0,.05-.08.04-.11-.14-.58.35-.94.5-1.42,0,0,0,0,0,0h0c.21-.85.91-1.42,1.23-2.2.21-.51.47-1,.8-1.44.49-.66.96-1.32,1.44-1.98h0c.45-.43.84-.87.79-1.58-.02-.28.04-.65.22-.84.91-.99,1.39-2.25,2.19-3.31.4-.52.65-1.25,1.49-1.28.19,0,.31-.17.36-.35Zm-46.13,13.31s-.03.05-.05.08c.01-.03.03-.05.05-.08Zm24.94-7.2c-.06.01-.12.03-.18.04.06-.02.12-.04.18-.04Z"/><path class="cls-1" d="m9.62,99.56s-.08-.04-.09-.07c-.29-.61-.94-.99-1.14-1.66-.36-1.18-1.15-2.14-1.76-3.18-.81-1.35-1.77-2.62-2.56-3.99-.65-1.12-1.34-2.21-2.01-3.32-.08-.14-.16-.28-.36-.32-.04.02-.11.03-.13.08-.11.17,0,.3.08.44.85,1.41,1.69,2.82,2.56,4.22.22.35.36.69.37,1.11,0,.53,0,1.1.69,1.28.1.03.16.18.24.26.45.43.58,1.04.9,1.54.78,1.25,1.69,2.42,2.29,3.77.04.09.09.19.16.25.4.31.62.72.72,1.21.06.27.22.45.51.36.26-.08.51-.22.76-.35.14-.07.08-.18.03-.31-.24-.61-.3-1.38-1.25-1.32Z"/><path class="cls-1" d="m204.44,98.68c-.58.53-1.46.94-1.12,1.96-.24.76.27,1.2.59,1.72.07.11,1.22.17,1.3.08.04-.04.07-.11.06-.16-.09-.37.19-.62.28-.93.18-.59.47-1.18.36-1.84-.09-.52-1.12-1.14-1.47-.82Z"/><path class="cls-1" d="m82.6,36.54c.09.28-.24.37-.41.53-.08.07-.24.08-.2.25.19.11.38.22.57.32.05.72-.37,1.34-.46,2.03-.11.78-.5,1.39-1.07,1.93-.5.47-.74,1.17-1.26,1.63-.04.04-.04.16,0,.23.11.27.21.54-.11.74-.3.18-.47-.07-.67-.23-.13-.11-.41-.14-.31.06.28.58-.09,1.08-.08,1.61,0,.44-.17.7-.65.76-.56.07-.67.35-.31.74.26.27.23.42-.08.59-.44.24-.81.57-1.16.94-.16.17-.23.32-.18.58.14.71-.05,1.36-.49,1.94-.34.62-.79.91-1.5.53-.16-.08-.46.07-.31.25.43.51.25,1.12.26,1.64.01.78-.02,1.13.78.44.19-.16.42-.19.43-.51.01-.7.32-1.3.71-1.86h0c.51-.22.38-.79.6-1.17.36-.61.88-1.13,1.08-1.83.1-.14.12-.31.12-.48h0c.52-.58,1.07-1.12,1.22-1.94.04-.23.19-.44.46-.51.16-.04.2-.17.24-.31.61-1.92,1.75-3.54,2.87-5.17.05-.09.1-.17.15-.26.3-.5.5-1.16,1.33-.71.23.12.23-.12.24-.28.03-.42.03-.86.24-1.22.3-.54.14-.75-.42-.8-.12-.01-.24-.08-.28-.2-.3-.89-1.16-.95-1.86-1.24-.17-.07-.4-.13-.46.09-.09.28.17.24.34.26.36.05.56.33.65.62Z"/><path class="cls-1" d="m259.93,85.51c0,.21-.04.52.26.48.19-.02.48-.27.5-.44.04-.31-.34-.23-.54-.35-.26-.04-.23.16-.22.31h0c-.5-.32-.97-1.04-1.08-1.64-.03-.16,0-.36-.2-.4-.23-.05-.29.17-.36.33-.16.39-.42.72-.72,1.02-.68.67-.63,1.24.15,1.75.08.05.19.1.24.18.31.46.65.7,1.11.16.14-.16.34,0,.5-.07-.01-.48-.47-1.06.35-1.31Z"/><path class="cls-1" d="m58.41,86.61c-.24-.37-.61-.73-.47-1.22.11-.38-.04-.54-.36-.59-.41-.05-.38-.23-.3-.57.12-.51.28-1,.45-1.51-.41.52-.93.88-1.24,1.49-.26.52-.36.9-.11,1.46.38.87.84,1.63,1.76,1.99.2.08.42.33.65.08.23-.26.1-.53-.05-.78-.08-.13-.23-.22-.32-.35Z"/><path class="cls-1" d="m178.03,103.14c-.25-.47-.58-.91-.47-1.5.05-.24-.13-.4-.32-.53h0c.11-.39.1-.68-.44-.63-.22.02-.4-.1-.47-.3-.14-.36-.38-.66-.59-.97-.89-1.32-1.58-2.74-2.4-4.1-.27-.45-.49-.9-.48-1.5,0-.73-.25-1.42-1.04-1.77-.33-.15-.54-.5-.68-.81-.41-.88-1-1.68-1.29-2.62-.12-.4-.37-.59-.77-.63,0,0,0,0,0,0-.05-.17-.06-.38-.17-.5-.34-.39-.26-.81.03-1.08.59-.55.73-1.31,1.05-1.98.74-1.53,1.49-3.06,2.23-4.59.16-.33.18-.75.56-.96.41-1.12.95-2.18,1.47-3.25.76-1.57,1.59-3.11,2.31-4.69.16-.35.5-.52.6-.85.38-1.21.93-2.33,1.58-3.4.07-.12.19-.27-.03-.49-.39.63-.9,1.15-1.12,1.86-.14.46-.35.9-.76,1.18-.33.23-.54.51-.61.91-.05.25-.17.49-.29.72-.87,1.53-1.78,3.05-2.63,4.6-.27.5-.66.96-.68,1.57,0,.28-.26.26-.44.32-.29.1-.46.26-.25.58,0,0,0,0,0,0,0,0,0,0,0,0-.26.43-.61.82-.76,1.28-.15.48-.83.81-.43,1.46.08.13-.07.09-.13.09-.22,0-.31.13-.25.3.08.26-.07.31-.26.36-.17.05-.3.17-.24.35.22.71-.48.95-.77,1.35-.2.27-.44.42-.42.82.03.52,0,.96-.74,1.13-.5.11-1.27.32-1.05,1.23.05.21-.11.42-.26.59-.57.63-.82,1.45-1.28,2.15-.18.27-.4.58-.43,1.06.42-.3.57-.65.75-1,.15-.29.23-.75.59-.77.44-.03.85-.2,1.28-.21.16,0,.34-.09.46.06.16.2-.08.31-.15.46-.11.25-.22.51-.39.74-.09.11-.16.26,0,.36.14.08.27.03.37-.1.18-.23.25-.49.31-.77.05-.23.14-.5.4-.55.24-.05.3.22.42.37.07.09.16.18.24.26.12.61.55,1.04.88,1.53.78,1.16,1.24,2.47,1.77,3.75.15.36.67.48.62.83-.08.62.37.87.65,1.26.32.43.65.85.95,1.29.53.78.82,1.68,1.42,2.42.32.39.75.93.24,1.55-.11.14.07.18.19.2.56.42.92,1.01,1.32,1.56.46.64.74,1.42,1.22,2.04.61.8,1.04,1.69,1.49,2.57.09.17.15.45.4.35.3-.12.12-.38.04-.56-.65-1.54-1.57-2.93-2.35-4.4Z"/><path class="cls-1" d="m44.66,105.09c-.27-.09-.41.15-.49.34-.49,1.07-1.2,1.96-2.13,2.69-.08.06-.15.21-.14.31.05.51-.17.92-.43,1.33-.18.28-.33.59-.48.89-.07.15-.06.32.11.42.17.1.32.03.42-.11.11-.16.19-.35.27-.53.13-.3.29-.61.64-.66.47-.08.51-.38.55-.77.07-.7.27-1.31.92-1.78.53-.38.7-1.08.96-1.58.01-.28,0-.49-.2-.55Z"/><path class="cls-1" d="m2.64,82.09c.45-.69.87-1.41,1.31-2.11.24-.38.59-.69.8-1.11.18-.36.37-.71.81-.82.23-.06.23-.25.21-.44-.08-.68.19-1.25.6-1.77.15-.19.29-.38.32-.63,0-.12.05-.26-.07-.34-.13-.09-.21.06-.29.13-.7.63-1.15,1.46-1.68,2.22-.17.25-.09.67-.27,1-.68,1.24-1.52,2.39-2.07,3.7-.06.14-.22.32-.05.42.22.13.28-.13.37-.27Z"/><path class="cls-1" d="m38.28,116.76c-.1-.19-.19-.41-.47-.4-.24.02-.35.19-.42.38-.32.97-.88,1.88-.77,2.97,0,.23-.05.52.29.54.32.02.34-.25.42-.48.16-.48.19-1.04.78-1.26.69-.25.74-.38.46-1.04-.1-.24-.19-.48-.3-.72Z"/><path class="cls-1" d="m130.88,55.33c.1.16.23.29.44.23.17-.04.28-.16.3-.34.03-.28.16-.48.37-.66.14-.12.25-.3.19-.48-.24-.8.09-1.43.55-2.04.29-.38.36-.8.03-1.21-.1-.13-.24-.23-.42-.17-.15.05-.21.19-.21.33.01.39-.28.77-.05,1.18-.1.35-.27.66-.54.91-.15.13-.37.24-.29.47.1.29-.04.44-.25.6-.43.34-.4.74-.12,1.17Z"/><path class="cls-1" d="m127.08,61.29c-.2.14-.23.31-.11.51.11.18.26.33.49.19.39-.23.81-.31,1.25-.37.26-.04.43-.18.25-.45-.35-.51-.13-.91.13-1.37.31-.54.52-1.14.76-1.66,0-.17.06-.31-.07-.38-.13-.07-.22.04-.31.12-.21.17-.29.42-.41.64-.55,1-.97,2.09-1.97,2.77Z"/><path class="cls-1" d="m199.72,46.26c.39.08.57.42.9.52.38.12.85.31,1.09-.17.11-.22.1-.53.25-.77.09-.13.04-.29-.11-.35-.36-.16-.65-.47-1.1-.45-.27.06-.55.1-.8.19-.34.12-.52.96-.23,1.02Z"/><path class="cls-1" d="m212.79,84.41c-.29.46-.82.77-.92,1.37-.03-.33-.05-.67-.08-1h0c.24-.83.28-1.69.33-2.53.11-1.55.17-3.1.25-4.65.01-.21,0-.43-.27-.44-.33-.02-.18-.23-.17-.39.02-.25.11-.24.3-.11.15.1.2-.03.21-.17.07-1.39.15-2.78.22-4.18.09-.35.15-.71.08-1.07-.15-.76-.11-1.49.1-2.24.13-.47.21-.62.67-.19-.66-.91-.68-1.89-.74-2.87-.04.06-.06.12-.08.18,0-.06.02-.12.08-.18h0c.27-.99.56-1.97.81-2.96.12-.48.49-.93.28-1.47,0,0,0,0,0,0-.02-.67-.18-1.35.12-2,.24-.53-.11-.59-.49-.58-.32,0-.64.07-.95.08-.15,0-.42-.03-.29-.23.35-.56-.1-1-.18-1.48-.04-.3-.1-.68-.55-.65-.44.03-.68.41-.64.74.07.64-.21,1.1-.53,1.58-.9.26-1.7.75-2.56,1.1-1.7.7-3.49,1.13-5.19,1.84-1.38.58-2.77,1.1-4.12,1.75-.2,0-.41,0-.59.12-.56.24-1.12.47-1.68.71-.26.04-.47.19-.71.29-.98.44-1.94.95-3.06,1.26,0,0,0,0,0-.01.11-.39,0-.74.19-1.07.18-.33.04-.67-.23-.84-.3-.19-.49.12-.65.35,0,0,0,0,0,0-.16.51-.33,1.02-.49,1.52-.04.12-.06.24-.2.27-.09.02-.15-.03-.18-.11-.06-.13.08-.44-.25-.34-.27.08-.52.21-.51.57,0,.28-.02.55-.17.81-.15.25-.43.54-.57.52-.3-.03-.18-.42-.24-.65-.02-.06-.01-.12-.03-.18-.05-.18-.12-.35-.35-.34-.23,0-.29.18-.32.37-.05.39-.09.79-.14,1.19-.63.35-1.36.45-1.99.88-.63.43-1.22,1-2.04,1.14-.25.05-.33.46-.36.74-.02.24.2.29.41.34.74.17,1.46.41,2.22.09.28-.12.44-.01.52.29.19.78.08,1.01-.67,1.35-.16.07-.33.15-.46.26-.29.27-.19.6.21.79.74.04.82.11.74.86-.06.57-.23,1.14-.27,1.71-.06.99-.37,1.93-.44,2.93-.05.66-.06,1.29.09,1.93h0,0s0,.08,0,.12c-.18.33-.27.69-.22,1.07h0c0,.09,0,.19,0,.28h0,0c-.09,1.34-.28,2.68-.19,4.02.02.27-.1.72.48.56.16-.04.16.14.16.26,0,.22,0,.43,0,.65-.14-.15-.28-.3-.5-.54-.01.72-.15,1.34-.01,1.96.13.57.08,1.14.03,1.7-.11.08-.11.17-.01.26,0,0,0,0,0,0,.01.8.02,1.59.03,2.39-.41,1.38-.49,2.83-.73,4.24-.07.42-.13.68-.59.8-.43.11-.88.23-1.2.6-.22.35-.06.46.29.46.15,0,.4-.26.43.14-.22.13-.33.39-.59.48-.5.17-.99.37-1.49.55-.17.06-.36.09-.38.32-.02.25.16.33.36.4.47.17.93.19,1.36-.09.44-.13.87-.36,1.34-.11h0s.02.04.04.04c0,0,.02,0,.03,0,.18.14.43.16.6.15.62-.06.91.34,1.21.74.12.15.18.35.27.52.04.17,0,.42.26.38.2-.03.14-.26.14-.4,0-.44-.02-.87-.02-1.31,0-.07,0-.14,0-.21.16-.33.49-.48.73-.74.38-.22.86-.2,1.22-.47.81-.23,1.53-.7,2.36-.85.12-.01.24,0,.35-.04.3-.1.6-.21.91-.32.16-.04.31-.1.47-.16.26-.09.53-.18.79-.28.87-.32,1.8-.71,2.8-.53.06.01.18-.02.2-.07.19-.4.59-.35.92-.47.24-.09.74.08.69-.24-.07-.37-.45-.04-.7,0-.12.02-.25.07-.31-.07-.05-.13.06-.24.15-.29.26-.15.53-.28.79-.41.72-.23,1.44-.46,2.16-.69,1.16-.38,2.2-1.05,3.4-1.34.56-.13,1.13-.28,1.65-.5.88-.38,1.8-.58,2.75-.69.38-.04.75-.03.92.46.14.42.45.39.75.12.38-.33.38-.82.47-1.26.11-.5.08-1.04.37-1.49.1-.06.21-.17.31-.16.61.05.7-.31.67-.79,0,0,0,0,0,0-.06-.41.04-.8.13-1.2.03-.11.04-.21.05-.32.09-.59.21-1.17.1-1.79-.16-.92.13-1.79.71-2.54.1-.14.31-.28.09-.44-.17-.13-.34,0-.45.16Zm-13.61,7.6c-1.64.78-3.28,1.53-4.97,2.19-.68.27-1.34.62-2.1.67-.26.02-.55.12-.65.37-.32.81-.95,1.3-1.69,1.68-.06.09-.08.2-.09.31-.07.05-.13.11-.2.16-.34.13-.66.43-1.05.29.01-.05.03-.1.04-.15.05-.36.22-.73.09-1.08.02-.22.04-.45.07-.67.13-.35.43-.64.43-1.03.19-.69.25-1.41.42-2.11.45-1.81.39-3.62.1-5.44-.37-.82-.61-1.63-.09-2.48.06-.09.04-.23.04-.35,0-.21.07-.41.15-.61.03-.34.03-.68-.04-1.01-.01-.07-.01-.14-.02-.22.02-.09.03-.19.05-.28.29-1.15.37-2.36.78-3.46.48-1.27.83-2.58,1.2-3.88.19-.66.29-1.32,1.05-1.61.12-.04.17-.25.26-.39.03-.11.09-.22.09-.34,0-.23.05-.43.12-.62.33-.19.63-.44,1-.56.14-.11.3-.2.46-.28.93-.45,1.88-.85,2.71-1.47.04-.14.1-.27.17-.38,1.39-.53,2.72-1.22,4.04-1.9.67-.35,1.34-.71,1.98-1.11.13.02.26.05.4.1.05.02.12-.02.17-.04,1.25-.55,2.43-1.27,3.82-1.46.31-.04.53-.27.69-.54.03-.05.06-.12.1-.17.08.03.15.06.22.11,0,.03,0,.06,0,.09-.01.1,0,.19.03.28.13.32.12.65.13.98.01.59.02,1.19.03,1.78-.15,1.09-.3,2.19-.52,3.27-.1.47-.58.97-.15,1.51,0,.04,0,.09,0,.13-.65,1.54-.54,3.18-.62,4.79-.08.64-.01,1.29-.06,1.94-.08.16-.12.35-.1.53,0,.14,0,.28,0,.41-.01.16-.02.32-.03.48-.05.49-.16.98-.33,1.45-.04.16-.12.31-.18.46-.04.26-.1.53,0,.77.03.07.03.13.05.2-.53,1.86-1.31,3.64-1.77,5.52-.08.28-.24.44-.53.57-.4.18-.82.34-1.19.59-.08-.03-.17-.05-.26-.06-.69.34-1.47.55-2.13.91-.71.38-1.4.79-2.13,1.14Z"/><path class="cls-1" d="m177.09,85.27c-.17-.05-.36-.1-.43.16-.12.42.21,1.31.59,1.56.24.16.39.18.63-.11.36-.45.27-1.32,1.19-1.29-.35-.11-.68-.1-.97-.24-.32-.15-.67,0-1-.08Z"/><path class="cls-1" d="m178.9,53.31c.4-.53.81-1.06.85-1.77.78-.36,1.45-.86,1.83-1.66.11-.23.48-.41.37-.63-.17-.34.02-.54.11-.8.27-.22.45-.5.59-.8.11-.23.16-.4.55-.32.26.06.56.15.84.13.21-.01.43-.15.46-.4.04-.35.24-.75-.19-1.02-.63-.53-1.45-.63-2.17-.95-.39.08-.87-.42-1.16.16-.27.52-.73.85-1.12,1.26-.41-.05-.8-.05-1.11.46.03-.32.05-.5.07-.67,0,0,0,0,0,0,.08-.09.18-.16.23-.27.12-.23.27-.49.13-.73-.16-.27-.45-.19-.7-.13-.22.05-.44.04-.64-.07-.38-.19-.69-.07-.95.22-1.04.76-2.22,1.27-3.3,1.94-1.13.71-2.38,1.22-3.47,2-1.06.75-2.26,1.25-3.37,1.9-1.83,1.06-3.68,2.09-5.57,3.05-.05-.05-.09-.09-.14-.14.24-.4.43-.83.73-1.2,1.06-1.28,1.47-2.94,2.42-4.29.22-.31.52-.58.64-.92.22-.58.65-.77,1.19-.82.77-.07,1.13-.67.81-1.43-.59-.54-1.22-1.01-1.97-1.31.52-.48.89-1.05,1.13-1.72.06-.18.11-.36-.09-.47-.23-.12-.38.04-.48.22-.08.14-.14.29-.2.43-.47,1.02-1.01,1.97-2.05,2.54-.47.26-.84.34-1.18-.14h0s-.05-.03-.08-.03c-.08-.04-.16-.05-.24-.05-.53-.11-1.04-.03-1.54.21-.19.09-.33.2-.59.04-.49-.31-.9-.19-1.18.33-.15.27-.32.43-.63.44-.21,0-.37.12-.53.25-.57.21-1.14.43-1.72.63-.22.08-.32.21-.33.43,0,0,0,0,0,0-.16.15-.3.34-.02.47.45.2.11.35-.03.43-1.02.54-1.94,1.24-3.07,1.59-.68.21-1.18.76-1.79,1.12-.34,0-.6.19-.89.33,0,0,0,0,0,0-.14.05-.29.11-.43.16h0s0,0,0,0c-.81.35-1.61.7-2.42,1.05h0s0,0,0,0c-.43.33-.89.6-1.43.72-.3.08-.59.17-.83.37.11-.43-.08-.89.14-1.3.11-.09.21-.19.32-.28.44-.18.55-.6.75-.96.1-.19.38-.36.36-.51-.04-.34-.38.05-.53-.14-.04-.05-.05-.11-.08-.16.39-.83.63-1.74,1.44-2.32.18-.13.33-.33.36-.6.03-.28.25-.49.39-.73.41-.7,1.06-1.25,1.35-2.02.1-.25.28-.55-.03-.76-.27-.18-.53-.01-.75.19-.33.33-.74.49-1.2.51h0c-.41.21-.43-.23-.62-.38-.22-.14-.4.02-.6.08-.75.22-1.14.86-1.67,1.34-.19.02-.38.05-.28-.26.06-.19.12-.38.14-.58.03-.21-.01-.41-.28-.44-.22-.03-.4.02-.48.26-.04.13-.06.27-.09.41,0,0,0,0,0,0-.13.39-.28.77-.4,1.17-.06.19-.12.38-.34.34-.37-.07-.5.22-.73.4-.76.58-.97,1.46-1.34,2.26-1,2.14-1.8,4.37-2.87,6.48-.15.29-.32.49-.63.6-.55.19-.85.62-1.13,1.09-.62,1.04-1.1,2.15-1.59,3.26-.13.29-.46.51-.41.84.09.69-.35.84-.85.99-.56-.04-.63.54-.97.77-.12.08-.27.23-.13.4.12.16.32.16.49.08.14-.07.26-.18.39-.27,0,0,0,0,0,0,.06,0,.13,0,.19.01-.22.54-.41,1.11-.68,1.63-.47.92-.59,1.97-1.11,2.87-.75,1.31-1.23,2.73-1.81,4.12-.43,1.03-.61,2.14-1.15,3.13-.27.49-.68.88-.84,1.43-.63.49-1.02,1.13-1.17,1.91-.01.07-.08.14-.14.19-.37.4-.62.88-.83,1.37-.37.85-.89,1.61-1.25,2.48-.24.6-.66,1.25-1.23,1.71-.33.27-.61.65-.82.98-.28.44.12,1.01.17,1.53h0s0,0,0,0c.7.14,1.57-.28,1.93-.95.11-.2.22-.45.45-.4.81.19.9-.35.99-.91.02-.13.09-.26.17-.38.56-.85,1.13-1.69,1.7-2.53.12-.27.24-.55.36-.82.04-.05.08-.1.12-.14.3-.29.59-.6.62-1.05.14-.1.25-.23.25-.39.02-.93,1-1.46.98-2.41,0-.11.13-.25.23-.33.17-.13.32-.26.45-.44.87-1.23,1.45-2.64,2.4-3.82.07-.09.15-.2.16-.31.05-.71.54-1.12,1.03-1.54,0,0,0,0,0,0h0c.64-.66,1.28-1.32,1.45-2.28.46-.18.82-.4.46-.97,0,0,0,0,0,0h0c.35-.16.29-.62.61-.81.13.11-.02.49.31.38.25-.08.35-.32.25-.58-.05-.15-.13-.28-.2-.43,0,0,0,0,0,0,0,0,0,0,0,0,.04-.04.08-.09.12-.13.29.44.48.21.78-.04.42-.34.48-.91.9-1.24.24-.19.48-.46.35-.75-.12-.28-.46-.09-.7-.1h0c-.09-.15.04-.2.12-.27.72-.27.8-1.1,1.34-1.53,0,0,0,0,0,0,.15-.1.31-.14.49-.07.28.1.32-.1.34-.31.16-.08.27-.2.36-.35.38-.07.74-.2,1.13-.25.38-.04.77-.15,1.01-.5.09-.3.17-.61.47-.78,1.18-.7,2.26-1.53,3.38-2.32.87.18,1.34-.6,2.04-.83,1.32-.89,2.81-1.5,4.19-2.28.5-.28,1.04-.48,1.56-.72.37-.18.78-.3,1.08-.6.27.03.26.17.16.37-.24.43-.38.92-.73,1.29-.09.1-.14.31-.29.26-.53-.21-.59.24-.68.52-.19.59-.61,1.04-.87,1.58-.41.86-.95,1.65-1.18,2.59-.08.2-.17.4-.25.59-.21.38-.41.77-.46,1.21-.28.85-.61,1.67-.74,2.57-.06.4-.03.91-.6,1.06-.12.03-.06.16-.02.26.07.18.05.35-.06.51-.47.67-.71,1.46-1.19,2.13-.27.39-.51.85-.53,1.37-.05.03-.12.1-.15.08-.79-.37-1,.21-1.34.73-.43.67-.57,1.44-.94,2.12-.96,1.78-1.9,3.58-2.82,5.38-.25.49-.26,1.05-.55,1.51-1.08,1.7-1.8,3.58-2.82,5.31,0,0,0,0,0,0h0s0,0,0,0c-.23.23-.3.53-.34.84,0,0,0,0,0,0h0s-.03.06-.04.09c-.67.59-1.05,1.4-1.46,2.13-.66,1.17-1.37,2.32-2.05,3.48-.7,1.18-1.31,2.4-1.89,3.63-.39.67-.83,1.31-1.14,2.01-.25.55-.67,1.06-.64,1.72,0,0,0,0,0,0,0,0,0,0,0,0-.34.28-.52.65-.58,1.09h0s0,0,0,0c0,0,0,0,0,0-.47.68-.05,1.53-.55,2.28-.28.41-.23,1.12-.64,1.6-.19.22-.21.48.11.64h-.02c.28.16.56.27.68.65.09.28.39.27.63.08.57-1.01,1.5-1.78,1.87-2.92.07-.21.29-.24.49-.29.66-.16.95-.59.81-1.26-.03-.17-.02-.29.1-.36.8-.45.75-1.07.4-1.77-.03-.05.04-.15.06-.23.3-.25.31-.64.49-.95.27-.4.5-.84.94-1.1.1.08.14.29.3.23.07-.03.14-.21.12-.31-.09-.43.17-.72.33-1.07.21-.44.5-.85.58-1.35.23-.53.6-.98.86-1.49.27-.53.67-.72,1.19-.68.27.02.42-.07.52-.28.23-.46.52-.9.67-1.38.19-.62.53-1.26.14-1.93-.01-.95,1.09-1.39,1.11-2.38,0-.18-.07-.4-.03-.6.16-.04.31-.08.47-.12.71-.05,1.23-.26.98-1.14,0-.02.03-.08.06-.09.56-.14.22-.46.14-.72.04-.08.08-.15.12-.23.27-.22.47-.47.49-.84.31-.45.63-.89.94-1.34.16-.28.33-.55.49-.83h0c.37-.71.74-1.42,1.1-2.13.06-.13.08-.34-.14-.27-.52.16-.18-.22-.24-.35h0c.21-.31.71.05.84-.31.3-.81.88-1.52.86-2.44.19-.33.38-.66.56-.99.42-.38.49-.93.71-1.41.05-.1.04-.3.16-.28.46.08.45-.35.64-.56.14-.16.18-.4.42-.48.66-.2.83-.71.84-1.32.4-.72.8-1.44,1.2-2.16.04-.08.08-.16.12-.24.37-.59.85-1.12,1.09-1.79.08-.07.16-.14.24-.22h0c.29-.04.32-.28.37-.49.16-.06.4.15.5-.15.21-.59.5-.72,1.04-.46.18.09.24-.02.35-.1.62-.47,1.12-1,1.08-1.85h0s0,0,0,0c.05-.16-.04-.35.13-.48.48.06.83-.25,1.21-.46.04,0,.08,0,.11-.02.4-.12.76-.33,1.1-.56h0s.07-.08.11-.12c.72-.12,1.37-.45,2.03-.73.34-.02.63-.14.84-.42.02-.01.05-.02.08-.01.56.09.92-.31,1.36-.52.64-.4,1.47-.4,2.05-.93h0c.32-.13.63-.25.95-.38.37-.15.74-.3,1.11-.45,0,0,0,0,0,0,.5-.06.94-.26,1.3-.62.2-.01.3-.19.46-.27.41.07.72-.18,1.08-.3.13-.04.35-.11.32.08-.08.41-.14.92-.4,1.19-.49.51-.9,1.11-1.15,1.7-.44,1.04-.98,2.03-1.4,3.08h0c-.2.26-.39.52-.47.85-.98,1.41-1.64,3.01-2.67,4.42-.84,1.14-1.72,2.26-2.51,3.45-.91,1.37-2.1,2.56-2.69,4.13-.26.27-.13.67-.3.94-.5.82-.7,1.76-1.05,2.64-.13.31-.02.55.19.78.23-.17.23-.41.33-.6.52-.97.33-2.16.99-3.09h0c.16-.05.09-.31.28-.32.26.24-.46.84.34.87,0,0,.02.22,0,.33-.03.2-.1.39,0,.58-.65.78-1.06,1.7-1.52,2.59-.08.15-.2.33-.41.1-.29-.32-.39-.07-.49.17-.12.1-.09.24-.1.37-.03.11-.12.24-.09.33.22.68-.12,1.18-.51,1.66-.13.16-.19.34-.23.53-.59.38-1.14.77-1.29,1.55-.09.47-.36.92-.59,1.36-.56,1.04-1.23,2.03-1.67,3.14-.04.09-.18.19.02.31.21-.29.36-.64.75-.86-.04.37-.08.66-.11.95l.03.02c-.4.2-.29.65-.48.95-.53.26-.59.19-.59-.76-1.46,2.09-2.34,4.46-3.73,6.52-.49,1.2-1.47,2.13-1.87,3.38-.1.32-.23.62-.53.84-.2.14-.36.58-.2.66.4.17.16.43.21.65-.01.03-.02.06-.03.1-.32.39-.49.96-1.11,1.04-.04,0-.1.17-.09.18.64.5.03.89-.11,1.31-.27.5-.56.99-.81,1.5-.62,1.3-1.12,2.66-1.87,3.9-.25.42-.47.87-.7,1.3-.22.24-.32.56-.46.85h0s0,0,0,0c0,0,0,0,0,0,0,0,0,0,0,0-.63,1.14-1.13,2.35-1.82,3.45-.11.17-.14.44-.09.63.17.68-.18,1.04-.72,1.31-.33,0-.79.1-.7.42.14.52.03,1.01.08,1.51.02.17-.07.39.23.36.28-.04.62.4.84-.05.15-.3.37-.42.66-.53.51-.19.58-.6.18-1-.14-.14-.18-.29-.21-.47.4-.43.47-1.05.88-1.47.58-.61,1.03-1.3,1.24-2.14.05-.2.24-.36.36-.53.51-.75,1.03-1.49,1.38-2.33.35-.4.59-.88.96-1.28.27-.29.64-.62.65-1.04.01-.48.32-.8.48-1.19.4-.97,1.21-1.67,1.66-2.6.15-.3.14-.7.43-.9.72-.5,1.02-1.29,1.46-1.99.1-.16.21-.42.43-.3.18.1.04.34-.02.49-.09.24-.24.46-.33.7-.08.22-.13.45-.19.68.91-1.5,1.32-3.21,2.24-4.69h0c.31-.24.37-.61.47-.96.34-.37.66-.75.68-1.3,0-.23.12-.45.28-.63.37.15.57-.02.78-.32.4-.56.77-1.15,1.41-1.49.2.17.4.17.6.01.14-.11.11-.27,0-.36-.34-.27-.14-.5,0-.77.11-.21.37-.34.38-.61-.22-.07-.32.23-.47.1-.15-.12,0-.29.02-.44.09-.71.5-1.24.93-1.76.72-.87,1.14-1.95,1.94-2.78.5-.52.9-1.12,1.25-1.79.36-.7.42-1.49.85-2.14.38-.13.56-.38.47-.77-.07-.31.05-.58.24-.76.45-.44.57-.98.64-1.56,0,0,0,0,0,0,.28-.36.4-.8.6-1.19.53-.5.8-1.16,1.07-1.82,0,0,0,0,0,0h0c1.07-1.55,2.07-3.15,3.02-4.78h0c.28-.31.53-.64.74-1.01.12-.22.29-.46.44.01.09.28.28.18.41.03.2-.22.37-.46.45-.77.14-.56.3-1.11.45-1.66.56-1.22,1.03-2.49,1.82-3.59.52-.78,1.16-1.48,1.44-2.4-.03-.7.54-1.1.84-1.62.25-.44.43-.92.82-1.28.44-.72.88-1.43,1.31-2.15.66-1.1,1.26-2.24,2.04-3.27Zm-35.91-8.62s-.05.08-.09.11c.03-.04.06-.08.09-.11Zm-21.3,41c0,.11.01.23,0,.35,0-.12,0-.23,0-.35Zm24.6-14.46h0s0,0,0,0c0,0,0,0,0,0,0,0,0,0,0,0Zm-16.18,32.13s0,0,0,0h0Z"/><path class="cls-1" d="m266.26,69.54c.58.32.75.89.93,1.47.05.18.2.31.41.26.19-.04.22-.21.25-.47-.26-.44-.28-1.03-.45-1.59-.03-.11-.18-.23-.3-.27-.34-.11-.62.05-.84.31-.08.1-.16.21,0,.29Z"/><path class="cls-1" d="m195.19,117.19c-.2.1-.4.16-.63.14-.27-.03-.42.11-.55.35-.2.38-.2.58.14.94.4.42.5.28.71-.08.16-.27.33-.54.62-.72.1-.06.18-.16.18-.32-.06-.22-.13-.48-.47-.32Z"/><path class="cls-1" d="m181.32,108.79c-.36,0-.8.42-.62.67.22.31.13.53,0,.8-.05.11-.06.25.06.32.12.08.24,0,.31-.09.15-.19.35-.31.54-.44.32-.22.25-.59.19-.92-.05-.26-.24-.34-.48-.34Z"/><path class="cls-1" d="m261.81,77.08c-.14.29-.19.66.07.89.28.26.55.5.69.86.05.13.19.21.35.16.14-.05.11-.19.13-.4-.21-.49-.41-1.06-.7-1.6-.12-.22-.42-.16-.53.08Z"/><polygon class="cls-1" points="14.88 60.79 14.89 60.79 14.89 60.79 14.88 60.79"/><path class="cls-1" d="m14.13,62.49q.36-.77,1.11-.37c-.34-.63-.28-1.01.57-.87-.32-.29-.72-.15-.92-.45-.5.12-1.04.19-.85.95.05.21-.12.41-.27.58-.1.11-.27.28-.06.39.17.09.33-.04.42-.23Z"/><path class="cls-1" d="m69.87,60.39c-.07-.05-.21.07-.2.16.03.46-.39.49-.69.69.24.29.55.24.79.37.25.14.53.22.77,0,.21-.18.17-.45.07-.66-.15-.29-.49-.38-.74-.57Z"/><path class="cls-1" d="m204.38,21.33c-.19.12-.35.2-.07.42.15.12.16.45.47.34.16-.05.47.32.47-.13,0-.28-.04-.6-.29-.83-.33-.3-.58-.65-.77-1.06-.06-.12-.13-.26-.35-.2.04.43.37.72.53,1.09.05.12.2.24.03.36Z"/><path class="cls-1" d="m80.25,96.86c-.26.53-.44,1.11-.8,1.6-.13.18-.21.45.03.59.28.16.39-.13.46-.31.32-.76.62-1.54.92-2.31-.35-.06-.5.18-.62.43Z"/><path class="cls-1" d="m80.87,96.42s0,0,.01,0c0,0,0,0,0-.01,0,0,0,0-.01,0,0,0,0,0,0,0Z"/><path class="cls-1" d="m98.49,14.33c.17,0,.25-.17.19-.22-.34-.31.21-1.06-.57-1.12-.33-.03-.45.19-.48.43,0,.44.47.92.85.92Z"/><path class="cls-1" d="m181.14,62.36c.31-.05.79-.11.78-.66,0-.37-.21-.62-.53-.57-.38.05-.53.37-.35.86.05.06-.27.43.11.37Z"/><path class="cls-1" d="m42.61,43.45c-.44.77-.89,1.42-1.07,2.26.33-.03.34-.38.62-.34.38.06.39-.15.29-.43-.11-.29,0-.55.13-.8.09-.16.21-.29.04-.69Z"/><path class="cls-1" d="m.47,84.84c-.2.06-.48.16-.47.39,0,.17.12.5.36.46.46-.07.55.3.88.63-.08-.48-.11-.83-.2-1.17-.07-.25-.29-.4-.56-.31Z"/><path class="cls-1" d="m51.5,92.36c-.39-.04-.36.42-.35.62,0,.3.36.47.64.5.25.03.35-.22.35-.32,0-.56-.31-.77-.64-.8Z"/><path class="cls-1" d="m191.21,45.61c-.04-.27-.19-.52-.44-.46-.37.08-.59.39-.65.77-.03.17.1.47.26.35.28-.21.76-.18.83-.66Z"/><path class="cls-1" d="m255.34,78.13c.27-.03.66.08.62-.47-.04-.55-.45-.63-.81-.81,0,.32,0,.6,0,.87,0,.16-.18.44.18.4Z"/><path class="cls-1" d="m153.7,66.93l-.05-.12c-.18.04-.38.04-.55.11-.69.26-1.37.54-2.05.81-.09.04-.19.09-.18.21,0,.1.1.13.17.1.89-.37,1.77-.74,2.65-1.11Z"/><path class="cls-1" d="m130.38,85.12c-.28.05-.59.08-.54.48.02.16-.07.44.26.4.37-.01.68-.07.65-.54-.02-.24-.09-.39-.37-.34Z"/><path class="cls-1" d="m199.29,97.48c.75.05,1.44-.19,2.12-.46-.79-.21-1.46.11-2.12.46Z"/><path class="cls-1" d="m85.6,39.77c-.06-.52-.37-.86-.78-1.23-.16.81.02,1.08.78,1.23Z"/><path class="cls-1" d="m90.15,49.68q.94-.6,1.1-1.33c-.69.22-.92.71-1.1,1.33Z"/><path class="cls-1" d="m149.23,85.45c.04-.39-.23-.47-.45-.5-.35-.06-.32.32-.37.49-.08.28.2.36.41.38.26.02.37-.19.4-.37Z"/><path class="cls-1" d="m145.84,92.92c.22-.41.65-.39,1.01-.51.17-.05.41.03.48-.3-.62.13-1.28-.05-1.77.48-.1.11-.28.22-.09.38.12.11.28.09.36-.05Z"/><path class="cls-1" d="m.56,100.77c-.24,0-.47.08-.47.35,0,.32.3.42.54.47.28.06.28-.21.32-.38,0-.28-.13-.43-.39-.44Z"/><path class="cls-1" d="m144.26,92.97c-.12-.05-.25-.21-.35-.02-.05.11-.02.28.02.4.05.16.18.26.36.26.4-.05.66-.3.81-.63.09-.19-.07-.25-.23-.16-.19.11-.36.26-.6.15Z"/><path class="cls-1" d="m159.34,24.38c-.23.29-.34.63-.32.99.01.23.22.25.33.08.18-.28.29-.6.42-.87-.02-.15-.07-.23-.17-.27-.1-.05-.19-.02-.26.07Z"/><path class="cls-1" d="m264.64,62.08c.23-.11.54-.06.54-.41,0-.3-.16-.45-.44-.44-.2,0-.43.12-.37.36.05.17,0,.46.27.5Z"/><path class="cls-1" d="m144.4,61.19c-.23-.05-.52.03-.53.27-.02.64.61.25.88.61.02-.45.07-.78-.36-.88Z"/><path class="cls-1" d="m190.91,61.92c.22.08.29-.15.37-.32-.09-.25-.25-.39-.53-.38-.18,0-.44,0-.43.2,0,.33.34.41.59.5Z"/><path class="cls-1" d="m269.27,117.02c-.21-.02-.27.13-.28.29-.03.33.22.39.46.44.17.03.34-.03.34-.24,0-.32-.24-.43-.52-.49Z"/><path class="cls-1" d="m232.22,116.94c-.24-.02-.34.12-.32.32.03.26.25.35.48.35.18,0,.27-.13.27-.32,0-.3-.19-.35-.43-.35Z"/><path class="cls-1" d="m130.39,101.14c-.26-.01-.34.18-.36.38-.02.2.08.34.32.38.22-.02.31-.18.33-.4.01-.2-.06-.36-.28-.37Z"/><path class="cls-1" d="m261.88,109.07c-.18,0-.32.13-.3.31.04.32.32.36.58.4.15.02.23-.04.2-.2-.08-.25-.15-.52-.48-.51Z"/><path class="cls-1" d="m262.13,61.88c.1-.13.42.13.4-.18-.01-.23-.13-.48-.41-.5-.2-.01-.34.14-.33.34.01.18.03.43.34.34Z"/><path class="cls-1" d="m130.45,53.93c.25.03.31-.15.31-.34,0-.22-.12-.37-.34-.42-.21.04-.34.18-.34.36,0,.22.15.37.37.4Z"/><path class="cls-1" d="m218.53,61.95c.1-.11.44.13.36-.22-.05-.22-.18-.46-.48-.44-.16.01-.39.11-.35.25.05.19.14.47.47.41Z"/><path class="cls-1" d="m92.76,63.1c-.02-.23-.27-.32-.49-.32-.2,0-.36.11-.36.31,0,.34.54.08.46.62.21-.3.41-.46.4-.6Z"/><path class="cls-1" d="m264.79,77.21c-.22,0-.21.21-.19.36.02.22.07.46.36.44.2-.01.22-.2.22-.36-.03-.24-.12-.44-.39-.44Z"/><path class="cls-1" d="m161.02,86.91c-.21-.02-.32.07-.3.23.03.28.25.34.48.33.19-.01.49-.04.44-.28-.06-.3-.46-.12-.63-.28Z"/><path class="cls-1" d="m40.74,47.71c.09-.59.78-.95.62-1.63-.12.58-.79.94-.62,1.63Z"/><path class="cls-1" d="m260.14,69.96c.27.03.21-.22.24-.4-.02-.19-.07-.39-.33-.37-.16.01-.31.13-.3.31.02.22.15.43.39.46Z"/><path class="cls-1" d="m195.37,22c.24-.1.55-.2.6-.49.03-.13-.21-.21-.43-.22-.11.15-.46.1-.46.4,0,.11.13.38.29.31Z"/><path class="cls-1" d="m204.43,53.34c.04.28.15.54.44.63.13.04.23-.08.23-.21,0-.33-.27-.44-.47-.59-.15-.02-.22.04-.2.16Z"/><path class="cls-1" d="m172.34,45.84c.18.02.28-.06.29-.22,0-.22-.11-.37-.34-.4-.16-.02-.35,0-.36.2,0,.26.22.34.41.42Z"/><path class="cls-1" d="m24.24,115.64s0,0,0-.01h0s0-.01,0-.02c0,0,0,0-.01,0,0,0,0,.01,0,.02Z"/><path class="cls-1" d="m23.76,116.13c-.13.12-.13.29-.05.44.05.1.15.13.25.11.18-.04.27-.15.27-.34,0-.23,0-.46,0-.69-.09.23-.31.33-.48.49Z"/><polygon class="cls-1" points="14.88 60.79 14.89 60.79 14.89 60.78 14.88 60.79"/><path class="cls-1" d="m15.55,59.79c-.56.34-.71.58-.66.99.29-.28.81-.41.66-.99Z"/><path class="cls-1" d="m81.48,94.72c-.08.05-.08.18.03.25.1.06.19.01.26-.07.25-.27.35-.59.26-.98-.23.24-.26.6-.56.8Z"/><path class="cls-1" d="m39.73,49.74c.37-.4.53-.91.72-1.4-.53.32-.64.86-.72,1.4Z"/><path class="cls-1" d="m39.73,49.74s0,0,0,.01c0,0,0,0,0,0,0,0,0,0,0,0,0,0,0-.01,0-.02Z"/><path class="cls-1" d="m94.12,102.85c-.39.38-.51.73-.52,1.32.35-.43.48-.78.52-1.32Z"/><path class="cls-1" d="m179.52,65.14c.04-.08.07-.17.1-.26l-.09-.04c-.06.05-.12.09-.18.14-.19.18-.33.38-.35.65,0,.02.1.08.13.07.24-.1.29-.35.39-.56Z"/><path class="cls-1" d="m144.18,86.17c-.22.04-.32.21-.3.43.01.14.09.23.23.2.21-.04.34-.18.36-.39-.02-.18-.14-.27-.28-.24Z"/><path class="cls-1" d="m81.07,95.73c-.25.12-.08.35-.13.52-.02.05-.03.1-.05.16.42,0,.27-.38.36-.59.02-.06-.1-.13-.18-.09Z"/><path class="cls-1" d="m42.85,43.19c.3-.28.39-.57.46-.86-.35.14-.48.41-.46.86Z"/><path class="cls-1" d="m43.32,42.32s0,0,.01,0c0,0,0,0,0-.01,0,0,0,0,0,0,0,0,0,0,0,.01Z"/><path class="cls-1" d="m147.35,85.55c.27.08.46.09.76-.07-.31-.1-.51-.12-.76.07Z"/><path class="cls-1" d="m41.68,15.39c.07-.2-.12-.25-.27-.31-.04.12-.08.24-.13.36.14.04.32.17.4-.05Z"/><path class="cls-1" d="m45.49,37.53c.18-.05.28-.17.26-.45-.2.09-.34.16-.35.34,0,.04.07.12.09.11Z"/><path class="cls-1" d="m173.33,63.25c-.25.23-.32.43-.39.72.28-.16.42-.3.39-.72Z"/><path class="cls-1" d="m144.51,92.47c.07-.26.13-.43-.05-.68-.14.25-.18.42.05.68Z"/><path class="cls-1" d="m43.57,41.85s-.12-.05-.15-.03c-.17.13-.12.31-.09.48.2-.09.33-.21.24-.45Z"/><path class="cls-1" d="m41.03,16.31c.05-.17-.1-.22-.23-.27-.04.12-.08.24-.11.36.13.03.29.09.34-.09Z"/><path class="cls-1" d="m195.14,85.33c-.27.17-.57.14-.9.22.27.14.59.09.77.36.13.2.27.08.39-.04.11-.12.22-.25.14-.43-.08-.19-.26-.2-.4-.11Z"/><path class="cls-1" d="m237.37,117.19c-.2.1-.4.16-.63.14-.27-.03-.41.11-.55.35-.2.38-.2.58.14.94.39.42.5.28.71-.08.16-.27.33-.54.62-.72.1-.06.18-.16.18-.32-.06-.22-.13-.48-.47-.32Z"/><path class="cls-1" d="m260.7,61.95c.1-.11.44.13.36-.22-.05-.22-.18-.46-.48-.44-.16.01-.39.11-.35.25.05.19.14.47.47.41Z"/><path class="cls-1" d="m331.27,96.59c-.12-.46-.47-.76-.81-.79-.65-.05-.98-.49-1.39-.86-.04-.04-.09-.09-.14-.11-.85-.31-1.25-1.07-1.69-1.76-.2-.31-.38-.58-.72-.74-.24-.11-.48-.3-.71-.1-.23.2-.16.54-.02.72.59.77.91,1.72,1.46,2.45.87,1.15,1.35,2.51,2.2,3.66.72.97,1.16,2.15,1.79,3.2.4.67.63,1.42,1.05,2.07v-6.72c-.46-.23-.89-.52-1.02-1.03Z"/><path class="cls-1" d="m279.98,122.91c-.37-.24-.49-.58-.55-1-.13-.85-.49-1.59-1.14-2.18-.09-.08-.16-.17-.17-.3-.12-.98-.68-1.79-1.01-2.69-.11-.31-.41-.6-.7-.77-.22-.13-.46.17-.7.25-.11.04-.23.04-.35.04-.1,0-.2.02-.23.14-.07.21.4,1.25.58,1.41.59.5,1.16,1.06,1.39,1.79.39,1.24.83,2.43,1.66,3.44.15.18.25.41.38.61h1.32c-.11-.28-.2-.58-.47-.75Z"/><path class="cls-1" d="m331.33,4c-.12-.09-.26-.23-.29-.37-.29-1.15-1.07-2.08-1.44-3.19-.06-.19-.2-.34-.4-.28-.35.09-.68.02-1.16-.16.52.89.95,1.62,1.37,2.36.47.83.91,1.68,1.39,2.51.2.34.02.88.31,1.06.59.37.74,1.03,1.18,1.47v-2.16c-.16-.53-.51-.92-.95-1.24Z"/><path class="cls-1" d="m294.2,116.9c-.31.23-.7.46-.7.89,0,.32-.11.59-.25.84-.99,1.7-1.82,3.49-3.08,5.02h.84c0-.2.03-.39.16-.57.9-1.26,1.71-2.57,2.35-3.98.11-.25.31-.64.66-.48.67.32.71.05.62-.51-.02-.13.08-.3.16-.44.12-.24.05-.42-.12-.59-.18-.17-.4-.36-.63-.19Z"/><path class="cls-1" d="m332.1,20.5c.08-.41-.34-.44-.51-.66-.08-.11-.22-.09-.31,0-.14.14-.15.3-.1.5.21.84-.05,1.18-.91,1.22-.43.02-.87,0-1.3,0,.98-.07,1.88.52,2.86.39.15-.02.31.06.47.09v-.72c-.29-.22-.24-.52-.19-.82Z"/><path class="cls-1" d="m331.31,70.62c0,.22-.17.35-.31.49-.2.19-.38.39-.53.83.69-.41,1.32-.62,1.82-1.08v-1.08c-.56,0-.99.15-.98.83Z"/><path class="cls-1" d="m326.82,30.57c.73.38,1.06.24,1.22-.59.03-.15,0-.31,0-.47,0-.54-.48-.8-.71-1.2-.92-1.57-1.78-3.17-2.82-4.68-.17-.25-.33-.5-.6-.66-.19-.39-.34-.82-.73-1.08,0,0,0,0,0,0-.01-.06-.01-.12-.04-.17-.72-1.22-1.8-2.22-2.35-3.55-.02-.05-.09-.08-.13-.12-.02-.15-.11-.26-.23-.35-.19-.64-.55-1.19-.97-1.7-.35-.63-.71-1.27-1.06-1.9-.16-.59-.46-1.1-.85-1.56-.19-.51-.49-.96-.76-1.44-.02-.08-.02-.16-.06-.23-.49-.83-1.08-1.64-.59-2.69.06-.13.02-.29-.11-.37-.15-.1-.28,0-.36.11-.28.34-.41.14-.54-.12-.4-.78-.79-1.56-1.19-2.34-.04-.25-.21-.42-.37-.59-.19-.42-.46-.37-.76-.13-.12.1-.18.29-.37.26-.69-.07-.78.4-.83.9-.02.16-.04.31-.12.46-.39.69-.72,1.4-.75,2.22-.01.34-.06.68-.16,1-.43,1.31-.6,2.67-.92,4-.16.68-.57,1.33-.41,2.08-.37.63-.35,1.35-.48,2.04-.02.41-.11.81-.24,1.2-.21.66-.36,1.33-.38,2.02-.63.77-.64,1.74-.85,2.64-.54.73-.17,1.68-.58,2.46-.14.27-.3.57-.25.91-.37.63-.37,1.37-.61,2.04-.29.81-.27,1.68-.48,2.5-.4.45-.37,1.03-.47,1.57-.01.02-.03.03-.03.05-.29,1.48-.52,2.97-1.37,4.27-.04.06-.05.18,0,.23.24.31.07.65.1.97-.21.78-.43,1.56-.61,2.34-.17.75-.23,1.53-.44,2.27-.63,2.15-1.13,4.32-1.47,6.54-.31.35-.38.78-.36,1.22.01.39-.05.76-.25,1.08-.24.4-.34.84-.35,1.3,0,0,0,0,0,0-.14.61-.43,1.17-.49,1.79,0,0,0,0,0,0-.29.48-.39,1.11-1.05,1.29-.52.14-1.15.13-1.2.91,0,.06-.1.14-.16.16-.6.19-1,.67-1.52.97-.81.46-1.62.94-2.44,1.38-1.13.61-2.16,1.43-3.49,1.57-.13.01-.23.09-.26.21-.1.38-.44.53-.74.64-.59.21-1.06.62-1.63.86-1.53.65-2.92,1.59-4.41,2.32-1,.49-1.97,1.04-2.98,1.5-1.17.52-2.13,1.38-3.22,2.03-.4.08-.91-.16-1.18.31-.14.25-.35.42-.52.62-.26.15-.53.29-.77.45-.25.17-.45.45-.23.7.25.29.38.59.47.94.06.21.28.31.48.29.62-.04,1.28-.01,1.85-.21.83-.29,1.54-.85,2.4-1.1.38.05.58-.3.9-.42,1.25-.46,2.58-.64,3.81-1.13.31-.12.64-.21.95-.33.34-.13.23.52.56.32.2-.12.07-.48.4-.58.87-.25,1.7-.66,2.62-.74h0c.42.17.75-.02,1.08-.24.17-.06.34-.11.5-.18,1.36-.57,2.74-1.1,4.16-1.52.48-.08.96-.14,1.44-.25.37-.09.52.02.5.39-.18.25-.24.54-.24.84-.35.2-.57.51-.64.89-.05.26.03.53-.04.81-.09.35-.08.68-.56.3-.2-.16-.36.04-.49.2-.19.23,0,.3.16.39.57.3.6.83.6,1.38.01-.04.02-.07.03-.11,0,.02,0,.04,0,.06,0,.02-.02.03-.03.05-.08.24-.15.49-.24.73-.31.83-.7,1.66-.8,2.52-.12,1.11-.9,2.04-.8,3.19,0,.05-.06.1-.09.15-.31.32-.62.66-.61,1.14,0,.39-.02.76-.18,1.11-.3.64-.51,1.28-.41,2,.04.28-.15.53-.34.74-.33.38-.46.82-.4,1.33.04.35.23.76-.37.88-.15.03-.15.27-.15.43,0,.65-.16,1.28-.29,1.91-.08.39-.4.68-.52,1.1-.15.55-.11,1.1-.22,1.65-.22,1.17-.82,2.22-.98,3.39-.1.75-.68,1.3-.73,2.06-.02.39.22.88-.34,1.12-.06.03-.1.18-.09.27.01.53-.26.99-.39,1.48h0c-.25.16-.38.43-.41.7-.14,1.09-.52,2.11-.96,3.11-.07.16-.05.35-.07.53,0,0,0,0,0,0-.22.57-.44,1.14-.52,1.76-.07.52-.27,1.03-.42,1.54-.11.38-.28.38-.52.09-.98-1.18-2.1-2.21-3.18-3.29-.43-.46-.83-.97-1.3-1.38-.44-.38-.74-.95-1.37-1.1-.58-.41-1.05-.94-1.44-1.52-.51-.75-1.24-1.36-1.59-2.22-.27-.67-.75-1.21-1.03-1.88-.16-.38-.47-.81-1.07-.66-.16.04-.28-.1-.37-.25-.23-.39-1.06-.65-1.42-.46-.39.22-.69,1.31-.46,1.68.42.67.91,1.29,1.42,1.9.55.65,1.22,1.23,1.57,2.02.22.51.59.91.88,1.36.64,1,1.4,1.93,1.95,2.98.91,1.74,1.81,3.49,3.01,5.05.13.57.64,1.03.43,1.69-.01.04.08.16.14.16.56.08.69.55.88.95.58,1.18,1.51,2.14,1.98,3.39.02.05.09.08.12.13.59.97,1.53,1.75,1.58,3,0,.05.05.11.1.13.49.21.71.67.98,1.08.09.14.16.14.28.05.23-.17.55-1.3.43-1.57-.04-.09-.14-.17-.07-.27.08-.11.22-.11.33-.07.17.05.33.14.49.22,0,0,0,0,0,0h0c.53.48.94.4,1.26-.23.15-.3.16-.62.03-.92-.08-.19-.16-.38-.11-.58.18-.77.26-1.59.6-2.29.42-.86.74-1.73.92-2.67.19-1.01.45-2,.73-2.99.23-.8.4-1.62.73-2.39.17-.39.23-.74.15-1.13.14-.71.41-1.38.73-2.03.23-.21.57-.44-.07-.53-.34-.05-.36-.32-.29-.54.37-1.1.52-2.26.82-3.38.34-.35.15-.86.38-1.23.25-.4.25-.78-.02-1.17-.27-.25-.24-.85.02-.81.81.12.66-.52.77-.91.07-.25.32-.69-.04-.79-.39-.1-.21.42-.34.63-.06.1-.09.25-.23.21-.05-.02-.06-.17-.08-.27.37-1.87.81-3.73,1.36-5.55.19-.62.38-1.25.57-1.87,0,0,0,0,0,0h0c.46-.37.24-.86.25-1.31h0c.22-.33.35-.71.47-1.08.23-.27.26-.6.36-.92.23-.74.25-1.46.13-2.21-.03-.17.02-.36.09-.52.21-.52.32-1.06.41-1.61.44-.24.05-.67.22-1,.49-.98.8-2.03.78-3.14,0-.21.07-.34.26-.31.72.11.68-.42.75-.85h0c.04-.08.06-.16.06-.24.12-.5.14-1.02.32-1.51.06-.15.07-.35-.03-.52h0c.23-.29-.04-.71.19-.95.84-.85.73-2.07,1.2-3.06.25-.54.4-1.05,1.01-1.26.35.19.7.13,1.02-.06.27-.16.51-.39.79-.53,1.76-.87,3.49-1.81,5.32-2.54,1.19-.47,2.24-1.22,3.44-1.72,2.18-.91,4.28-1.99,6.48-2.86.23-.04.47-.14.69-.1.46.08.7-.12.85-.51.49-.4,1.13-.5,1.64-.88.49-.37,1.09-.11,1.62.18.07-.35-.15-.57-.21-.83-.09-.33.2-.5.32-.73.13-.09.25-.22.39-.27.3-.11.41-.35.38-.6-.04-.34-.38-.21-.59-.25-.11-.02-.23.04-.35.05-.53.05-1.07.14-1.59-.25.27.42.07.55-.26.61-.97.16-1.93.39-2.93.45-1.69.12-3.33.61-5.02.84-1.29.17-2.59.32-3.88.62-1.39.32-2.85.18-4.26.48-.21-.19-.45-.07-.68-.07-.36,0-.59-.13-.44-.55.32-.89.46-1.84.83-2.72.15-.34.26-.71.27-1.09.07-.75.52-1.41.56-2.17.02-.24.18-.44.39-.58.22-.14.52-.06.72-.26h0s0,0,0,0c1-1.49,1.36-3.22,1.73-4.91.2-.89.5-1.74.66-2.64.25-1.37.66-2.7.99-4.05.35-1.42.71-2.84,1.01-4.28.23-1.15.78-2.22.78-3.42.15-.11.2-.27.25-.45.37-1.46.78-2.91,1.13-4.37.16-.66.6-1.28.42-2.01,0,0,0,0,0,0,.04-.13.08-.25.12-.38.35-.45.44-.99.49-1.54.02-.03.02-.06.02-.09.04-.02.07-.05.09-.08.18-.18.15-.43.13-.67.04-.09.07-.18.11-.27.19-.28.23-.61.25-.93.2-.16.08-.44.23-.62.23-.49.43-.99.5-1.54.42-.04.5.34.64.58.47.78,1.05,1.49,1.55,2.26.91,1.39,1.88,2.75,2.83,4.12,1.1,1.57,2.24,3.12,3.26,4.74.44.7,1.31.88,1.72,1.58.19.31.51.49.83.66Zm-38.1,76.29v.02s0,0,0,0c0,0,0-.02,0-.02,0,0,0-.01,0-.02,0,0,0,0,.01,0,0,0,0,.01-.02.02Z"/><path class="cls-1" d="m270.98,107.12c.22-.06.32-.22.33-.48-.01-.04-.01-.14-.06-.19-.45-.54-.57-1.27-1.08-1.78-.32-.32-.55-.71-.7-1.16-.23-.69-.61-1.35-.98-1.95-.36-.6-.72-1.2-1.07-1.82-.85-1.49-1.4-3.14-2.45-4.51-.55-.7-.63-1.63-1.18-2.33-.26-.33-.5-.68-.51-1.13,0-.21-.14-.34-.33-.37-.52-.07-.7-.39-.68-.87,0-.15-.02-.29-.19-.33-.15-.04-.2.09-.27.19-.18.24-.27.43,0,.72.48.5.52,1.34.17,1.94-.14.24-.29.5.03.66.23.11.35.74.77.2.11-.15.36-.07.41.07.24.57.39,1.19.77,1.7.03.05-.02.21-.08.27-.25.26-.15.48-.02.76.22.48.4.96.97,1.14.16.05.23.23.24.39.03.98.7,1.67,1.11,2.47.12.24.22.4.04.64-.21.28-.07.56.19.64.74.22,1,.93,1.31,1.46.6,1,.95,2.14,1.68,3.07.15.2.21.65.43.57.32-.13.02-.47-.01-.72-.02-.14-.07-.29.1-.36.16-.07.26.05.35.16.16.19.19.44.27.66.07.19.17.38.43.31Z"/><path class="cls-1" d="m322.5,101.54c0-.26-.09-.78-.48-.84-.43-.07-.65-.3-.8-.63-.34-.78-.89-1.48-.98-2.37,0-.09-.06-.21-.13-.26-.89-.56-1.07-1.61-1.68-2.36-.25-.3-.35-.64-.44-1.02-.14-.57-.26-1.18-.87-1.5-.11-.05-.15-.23-.22-.35-.83-1.47-1.61-2.97-2.52-4.39-.31-.49-.32-1.17-.9-1.5-.36-.2-.57-.5-.46-.94.06-.24-.05-.36-.28-.32-.2.03-.49-.38-.55-.06-.1.52-.49.47-.84.63.62,0,.98.32,1.07.85.12.72.33,1.21,1.1,1.59.48.23.9.99,1.1,1.65.2.67.65,1.18.98,1.76.36.64.98,1.18.93,2.07,0,.19-.32,1.28.75.91.18-.06.31.24.38.42.31.83.81,1.56,1.3,2.28.74,1.09,1.14,2.38,2.04,3.37.23.24.43.53.14.9-.16.21.06.34.21.41.81.37,1.1,1.17,1.56,1.82.14.2.2.47.47.59.17-.26,0-.43-.07-.63-.25-.7-.79-1.27-.81-2.08Z"/><path class="cls-1" d="m274.31,113.99c.4.32.55.72.82,1.02.16.17.32.44.59.26.27-.18.08-.41-.02-.63-.45-.95-1.05-1.83-1.4-2.84-.16-.46-.1-1.03-.49-1.39-.55-.52-.69-1.36-1.4-1.76-.08-.04-.09-.21-.12-.33-.16-.65-.22-.69-.76-.31-.3.21-.58.38-.89.03-.07-.07-.17-.15-.26-.06-.12.11-.01.22.05.31.17.26.39.49.37.85-.04.72.16.88.89.73.24-.05.44-.05.57.19.12.22.19.43.05.68-.36.64.27,1.79,1,1.83.4.02.47.18.27.48-.13.2-.2.38-.08.61.27.53.5,1.08.85,1.57.1.14.18.38.39.27.21-.11.07-.33-.02-.47-.18-.3-.42-.56-.41-1.04Z"/><path class="cls-1" d="m325.37,11.68c.39.49.79,1.04.99,1.59.16.44.08.93.61,1.17.05.02.07.1.11.14.58.65.82,1.5,1.29,2.21.53.8.8,1.86,1.95,2.1.17.03.35.22.49.05.17-.21-.04-.38-.18-.51-.43-.38-.65-.84-.65-1.42,0-.15-.06-.31-.14-.45-.44-.82-1.14-1.35-1.97-1.72-.58-.26-.65-.53-.23-.9.1-.09.27-.15.2-.32-.06-.15-.21-.16-.36-.15-.31.01-.41-.08-.24-.39.2-.37.15-.64-.36-.58-.34.04-.53-.13-.65-.41-.3-.72-.62-1.41-1.13-2.01-.33-.39-.58-.86-.83-1.32-.18-.33-.4-.72-.31-1.07.15-.57-.1-.68-.45-.67-.56-.04-.71.17-.44.63.79,1.32,1.31,2.79,2.27,4.03Z"/><path class="cls-1" d="m305.83,99.69c-.26.25-.49.52-.76.77-.38.35-.78.71-1.34.71-.57,0-.96.25-1.07.82-.19,1.01-.76,1.87-1.31,2.66-.52.74-.67,1.27-.11,1.97.1.13.16.3.35.28.08,0,.18-.09.23-.16.1-.17,0-.31-.12-.42-.14-.13-.38-.24-.32-.46.14-.51.18-1.09.61-1.47.47-.42.92-.82.89-1.54,0-.18.2-.36.43-.34.22.02.22.2.17.37q0,.16.68.75c.11.1.21.3.39.21.21-.11.11-.31.06-.48-.16-.63.09-1.19.67-1.46.36-.17.74-.3.36-.81-.09-.13.03-.26.11-.38.16-.21.32-.41.48-.62.1-.14.15-.3,0-.43-.13-.11-.28-.07-.38.03Z"/><path class="cls-1" d="m279.04,86.06c.15-.02.3-.15.28-.27-.06-.33-.37-.51-.57-.76-.04-.06-.18-.04-.28-.05-.01,0-.03.07-.04.1-.14.46-.54.42-.88.39-.4-.03-.79.02-1.2.14.8.01,1.59.12,2.33.44.1.04.24.02.35,0Z"/><path class="cls-1" d="m298.77,109.28c-.43-.02-.55.24-.48.64-.22.89.51.28.75.39.35.16.31-.32.33-.53.05-.41-.3-.48-.6-.5Z"/><path class="cls-1" d="m268.07,85.56c.79.07,1.25.64,1.94.76-.21-.61-.43-1.2-1.13-1.73.48,1.07-.4.72-.8.97Z"/><path class="cls-1" d="m326.59,61.43c-.05,0-.22-.03-.32.13-.06.09-.05.19,0,.28.09.16.27.22.41.15.45-.24.91-.24,1.39-.15.09.02.22-.02.23-.14.02-.16-.12-.2-.24-.19-.46.03-.92-.03-1.48-.09Z"/><path class="cls-1" d="m274.26,110c.13-.07.08-.22.06-.32-.07-.27-.15-.53-.23-.8-.04-.14.01-.39-.2-.37-.25.02-.23.28-.27.48.15.27-.01.64.27.88.1.09.22.2.37.13Z"/><path class="cls-1" d="m322.5,5.98c.24-.17.12-.38-.01-.57-.19-.29-.46-.47-.82-.73.02.48.09.8.3,1.07.13.17.28.4.53.22Z"/><path class="cls-1" d="m274.53,78.11c-.13-.3-.25-.61-.39-.91-.05-.11-.16-.19-.29-.17-.13.02-.11.15-.12.24-.05.38-.09.75-.15,1.22.3-.27.49-.66.95-.39Z"/><path class="cls-1" d="m311.86,101.62c.32.16.58.28.84.42.1.05.18.2.29.07.06-.08.08-.22.07-.33-.08-.56-.6-.65-1.2-.16Z"/><path class="cls-1" d="m285.49,85.71c-.02-.32-.23-.48-.54-.55-.22.09-.42.16-.43.48,0,.58.4.26.64.33.27.08.33-.06.32-.27Z"/><path class="cls-1" d="m269.62,69.85c.23,0,.4-.14.41-.45-.22-.03.1-.49-.29-.39-.24.06-.62.06-.6.44,0,.25.23.42.49.41Z"/><path class="cls-1" d="m322.13,86.05c.12,0,.04-.24-.02-.35-.28-.52-.62-.22-.95-.07.12.68.62.43.98.42Z"/><path class="cls-1" d="m294.78,89.05c-.11-.04-.2,0-.24.1-.16.43-.35.86-.09,1.44.22-.46.22-.91.47-1.25.07-.09-.01-.23-.14-.28Z"/><path class="cls-1" d="m293.93,101.73c.01.17.11.31.31.27.24-.06.35-.26.36-.49,0-.18-.16-.26-.35-.26-.25.06-.33.25-.32.48Z"/><path class="cls-1" d="m284.54,101.39c.02.31.36.34.57.47.14.09.2-.06.2-.17-.02-.3-.14-.48-.42-.53-.19-.03-.36.05-.35.23Z"/><path class="cls-1" d="m312.42,117.24c-.15-.02-.23.09-.2.22.06.24.26.33.51.38.11-.05.31-.08.26-.24-.07-.26-.33-.33-.57-.36Z"/><path class="cls-1" d="m312.85,69.79c.15-.02.29-.07.26-.24-.03-.22-.17-.34-.41-.32-.16.01-.36,0-.29.24.05.2.21.32.44.32Z"/><path class="cls-1" d="m312.54,37.55c-.02.17.11.25.27.23.14-.02.29-.07.3-.23.01-.19-.12-.28-.32-.32-.18.02-.24.17-.25.33Z"/><path class="cls-1" d="m293.44,94.99c.03-.09-.04-.16-.12-.17-.23-.04-.25.12-.27.28.16.05.31.09.39-.11Z"/><path class="cls-1" d="m293.05,95.1s0,0,0,0h0,0s0,0,0,0c0,0,0,0,0,0,0,0,0,0,0,0Z"/><polygon class="cls-1" points="288.73 106.86 288.73 106.86 288.73 106.86 288.73 106.86 288.73 106.86"/><path class="cls-2" d="m253.27,60.71c.14-.4.15-.9-.25-1.06-.49-.19-.55.38-.7.7-.29.62-.28,1.33-.58,1.94-.22.05-.43.13-.48-.22-.04-.23-.19-.41-.45-.4-.27,0-.38-.18-.5-.36,0,0,0,0,0,0-.04-.13-.09-.26-.12-.4-.08-.28-.27-.42-.56-.45-.27-.03-.47.09-.59.31-.23.44-.64.76-.79,1.25h0c-1.02.03-1.97.44-2.96.63-.98.14-1.98-.06-2.96.07.41.32.97-.05,1.38.37-.33.21-.73.1-.96.4-.51.35-1.19.23-1.68.61l-.47.11c-.31-.09-.61-.18-.64.31-.63-.08-1.07.43-1.64.54-.45.1-.93.11-1.35.34h0c-.2.08-.39.16-.59.23-.55.19-1.1.38-1.65.58-.41.15-.88-.07-1.22.28-.28.16-.56.33-.83.49h0s0,0,0,0c-.32.03-.65.06-.97.08-.44-.12-.81-.08-1.19.26-.33.3-.76.5-1.22.62.1-.23.14-.51-.11-.61-.25-.1-.32.21-.44.37-.06.08-.09.17-.14.25-.13.24-.29.34-.51.09.02-.8.27-1.59.14-2.4.16-.64-.02-1.26-.15-1.88-.04-.17-.13-.35-.33-.4-.21-.04-.23.17-.31.29-.61.92-.85,1.94-.92,3.02-.27.31-.1.66-.11,1-.29.6-.66,1.14-1.2,1.56h0s0,0,0,0c-.69.25-1.47.11-2.15.47.24.01.54-.06.7.06.56.43,1.04.09,1.55-.06.57-.47.79-1.16,1.12-1.78h0s0,0,0,0c.08,0,.15,0,.23,0h0c.44.18.43-.16.49-.42.13-.6.04-1.27.43-1.8.08.72-.09,1.43-.2,2.13-.04.22-.23.37-.48.39-.33.02-.46.25-.58.51-.27.59-.4,1.23-.79,1.79-.12.18-.16.35-.14.52,0,0-.01,0-.02,0-.21,2.17-.87,4.23-1.39,6.33.56-.78,1.25-1.44,1.27-2.54,0-.69.65-1.17,1.07-1.7.09-.12.38-.2.52-.14.31.12.15.37.09.61-.29,1.06-.24,2.22-1.04,3.12-.27.3-.34.79-.02,1.08,1.16,1.08.67,2.34.43,3.56-.1.55-.26,1.09-.4,1.63-.04-.16-.09-.31-.19-.44-.56-.75-.6-1.56-.62-2.41-.17.16-.18.38-.19.59-.02.49-.03.97-.05,1.46-.59-.05-.59.23-.35.64.04.07.07.14.1.21,0,.24.02.48.03.71-.18.95-.5,1.87-.52,2.84,0,.21-.06.51.13.6.21.11.35-.18.52-.3h0s0,0,0,0c.41.27.25.67.19,1.02-.05.33-.13.66-.09.99-.2.54-.08,1.15-.36,1.68-.32.57-.64,1.14-.99,1.76.39.01.4-.37.67-.38.12.19.09.4.07.59-.14,1.7.02,3.4,0,5.1,0,.38-.02.76.27,1.07h0s0,0,0,0c.07.13.14.26.21.38,0,0,0,0,0,0,.04.08.09.15.13.23-.03.37.16.8-.07,1.11-.4.56-.7,1.27-1.58,1.27-.16,0-.35.1-.49.2-.27.2-.33.38.03.62.54.37,1.11.22,1.67.21.35,0,.63-.06.72.38.04.19.24.27.38.16.61-.49.55.04.61.39.02.11.05.23.15.24.53.06.5.47.54.84.03.24.11.46.17.7.04.17.1.31.3.32.18,0,.28-.13.34-.29.05-.13.07-.27.1-.4.52-.28.45.53.99.48-.48-.51-.55-1.15-1-1.56-.07-.12-.15-.24-.22-.36,0-.2,0-.39-.01-.59.2-.39.54-.34.88-.27h0s0,0,0,0c.06,0,.12,0,.18,0,.51,0,.24-.55.51-.71.09-.03.17-.06.26-.1,0,0,0,0,0,0h.05s.05-.01.05-.01c.83,0,1.65-.05,2.39-.48.28-.04.56-.08.85-.12.1-.19.4-.12.52-.42-.26.02-.45.04-.64.06-.04,0-.07-.02-.1-.03,0,0,0,0,0,0h0c.26-.37.79-.13,1.06-.46.43-.31,1.01-.15,1.44-.46h0c.08,0,.16-.02.23-.02.29.04.54-.05.8-.16.5-.22,1-.42,1.59-.32.59.1.91-.2.98-.8.17-.14.33-.31.58-.28.92-.45,1.99-.46,2.9-.93h0c.07,0,.14.01.21.02h0c.01.08.04.16.03.23-.04.19.02.3.21.35.11.03.24.08.32-.04.1-.14.12-.27-.04-.41-.14-.13.04-.19.1-.27,0,0,0,0,0,0,.24-.04.34-.56.71-.21.06.05.19-.05.21-.15.14-.59.68-.71,1.1-.97.23-.54.84-.44,1.23-.71h0c.5-.09.95-.3,1.41-.48.41.02.81-.02,1.2-.13.05.08.09.15.14.23.21.57.31.6.71.2.06-.06.12-.09.18-.14.07-.06.17-.12.25-.18.05,0,.1,0,.14,0,.12-.24.13-.5-.11-.63-.06-.03-.11-.06-.15-.1.03-.2.19-.37.32-.56,0-.03,0-.06,0-.08.03,0,.07-.01.1-.03.12-.1.24-.19.37-.27.06-.02.11-.03.16-.07.08-.04.17-.09.26-.11.13-.04.21-.12.25-.25,0-.01,0-.02,0-.03.04-.02.08-.04.12-.06.07-.2.22-.44.03-.59-.25-.2-.51-.01-.74.13q-1,.38-1.07-.6c.45-.79.19-1.68.36-2.5.5-.33.41-.87.45-1.35.08-1.12-.22-2.25-.01-3.38.05-.28.1-.6-.17-.84-.02.02-.04.03-.05.05,0,0,0,0,0-.01l.06-.04c.04-.38-.07-.86.45-.98.34-.07.36-.21.3-.49-.18-.87.14-1.75-.05-2.65-.07-.35.19-.81-.03-1.23.15-.85.45-1.63,1.05-2.49-.42.16-.8.79-.8-.06.1-.43.22-.87.13-1.32.04-.07.08-.15.12-.22.42-.61.47-1.31.46-2.02l.23-.55c.26-1.14.59-2.27.75-3.43.36-.32.25-.7.16-1.07,0-.05,0-.1-.03-.15,0,0,0,0,0,0-.08-.37.11-.72.09-1.09.19-.34.02-.66-.09-.97,0,0,0,0,0,0-.29-.3-.43-.67-.37-1.08.16-1.04.22-2.1.57-3.1Zm-11.65,4.44s0,0,0,0c0,0,0,0,0,0,0,0,0,0-.01,0h0s0,0,0,0Zm-8.25,35.39s-.02,0-.02,0c0,0,0-.01.01-.02,0,0,.01,0,.01.02,0,0,0,0,0,0h0Zm13.88-33.34c0,.45-.27.65-.67.74-1.04.32-2.08.64-3.13.96-.67.06-1.3.31-1.94.51-.54-.01-1.02.23-1.53.33l.38.14c.4-.04.79-.14,1.16-.28.68-.01,1.27-.39,1.93-.48h0c.14.04.27,0,.41-.03.78-.15,1.49-.52,2.24-.74.75-.22,1.08.08,1.02.9,0,0,0,0,0,0-.15.13-.19.3-.21.48-.08,1.04.05,2.1-.23,3.14-.05.19-.07.44.09.63h0c-.14,1.46-.03,2.93-.2,4.4-.08.7-.15,1.4-.11,2.13.04.71.14,1.47-.16,2.18-.07.95-.16,1.9-.2,2.86-.01.31-.16.6-.02.94.17.4.06.68-.46.6-.17-.03-.34-.04-.37.18-.02.11,0,.26.05.34.13.18.28.06.42-.03.38-.26.56.05.42.27-.31.49.03.89.02,1.32,0,.24,0,.47-.11.68-.03-.01-.06-.03-.1-.05-.16-.04-.31,0-.44.1-.43.31-.92.52-1.35.82-.16.17-.34.31-.53.44-.05-.01-.1-.03-.14-.08-.38-.42-.47-.07-.62.17-.06.09-.1.19-.15.29-.08.02-.15.04-.23.05-.53.47-1.21.71-1.78,1.13-.19.23-.41.4-.65.55-.16.03-.29-.08-.39-.35-.12-.3-.34-.44-.64-.15-.29.28-.68.4-1.04.58-.39.19-.89.21-1.16.65.56-.15,1.1-.38,1.64-.59.27-.11.65-.3.81,0,.04.08.04.14,0,.19-.21.05-.42.09-.65.12-.73.6-1.61.96-2.43,1.4-1.19.64-2.43,1.18-3.68,1.69-.22.09-.43.21-.55.43-.01.04-.02.08-.03.12-.5.03-1.01-.03-1.51.21,0-.13,0-.18.02-.23.05-.15.32-.3.08-.43-.18-.1-.27.15-.36.31-.21.38-.44.74-.66,1.11,0,.01-.01.02-.02.04-.08-.02-.17-.03-.25-.05-.32.02-.47-.15-.52-.45-.13-.71-.2-1.42,0-2.13.1-.35.1-.7.06-1.06-.11-1.02-.29-2.03.1-3.07.21-.55.21-1.21-.11-1.8-.1-.05-.16-.12-.21-.19.03-.74-.07-1.48.12-2.21.15-1.26.22-2.54.27-3.8.08-1.87.19-3.72.46-5.57.12-.86.43-1.68.53-2.54.12-.25.24-.49.32-.76.02-.09.05-.18.07-.28.08-.39.03-.77-.03-1.15.06-.3.1-.61.06-.92-.07-.59.17-.85.71-.96.93-.18,1.88-.27,2.79-.59,1.23-.44,2.58-.44,3.8-.95.2-.04.39-.09.59-.13,1.01-.18,2.02-.37,3-.71,1.57-.19,2.95-.99,4.44-1.45.42,0,.85.08,1.2-.26.12.11.39.08.32.36,0,0,0,0,0,0Zm2.93,17.89s0,0,0,0c0,0,0,0,0,0h0s0,0,0,0c0,0,0,0,0,0Zm.61-10.67s0,0,0,0c0,0,0,0,0,0,0,0,0,0,0,0Z"/><path class="cls-2" d="m231.31,63.62c.31-.3.82-.22.89-.71,0,0,0,0,0,0,.37-.06.76.05,1.22-.11-.48-.22-.97,0-1.31-.39-.36-.4-.49-.16-.53.23-.03.01-.06.02-.1.03h0c-.3,0-.61-.06-.99.2.54.04.74.32.82.75Z"/><path class="cls-2" d="m222.73,63.08c.28-.26.65-.23,1.13-.35-.5-.11-.87-.03-1.18-.26-.09-.06-.23-.12-.3.03-.08.19-.09.39.05.56.09.11.21.11.31.01Z"/><path class="cls-2" d="m224.17,75.91c.11-.29.43-.5.35-.94-.29.22-.41.48-.56.72-.05.08-.05.2.06.25.03.02.14-.01.15-.04Z"/><path class="cls-2" d="m250.92,61.25c.16.01.29-.03.27-.22-.03-.19-.15-.34-.35-.32-.17.01-.26.15-.27.33.03.23.21.2.36.21Z"/><path class="cls-2" d="m228.65,62.77c-.4-.04-.8-.18-1.19.05.4.06.8.24,1.19-.05Z"/><path class="cls-2" d="m241.02,62.68c-.04-.12-.19-.15-.3-.07-.32.21-.15.46-.05.76.26-.19.47-.37.35-.69Z"/><path class="cls-2" d="m252.07,82.14c-.06.35.1.52.31.67.02.01.12-.04.13-.07.02-.26-.11-.44-.43-.59Z"/><path class="cls-2" d="m224.63,66.55c-.07-.34-.13-.68-.53-.91.02.45.27.68.53.91Z"/><path class="cls-2" d="m223.51,96.78c.03.35.1.58.44.71,0-.35-.13-.54-.44-.71Z"/><path class="cls-2" d="m225.43,67.79c.09.02.13-.06.15-.14,0-.12,0-.24-.15-.27-.08-.02-.14.05-.15.13,0,.12.02.24.15.27Z"/><path class="cls-2" d="m234.93,94.31c-.61.52-1.52.52-2.04,1.19-.26.19-.53.38-.79.56.44.01.76-.19,1.07-.41-.02-.01-.05-.03-.07-.04.03,0,.05.02.07.04.64-.35,1.29-.7,1.92-1.06.1-.06.29-.15.15-.32-.08-.1-.23-.04-.32.04Z"/><path class="cls-2" d="m244.28,88.56c-.41.23-.36.68-.45,1.07.28-.29.53-.61.59-1.01,0-.01-.11-.07-.14-.05Z"/><path class="cls-2" d="m244.52,86.98c.12,0,.25-.03.25-.18,0-.13-.12-.12-.22-.14-.11.01-.26,0-.28.15-.01.15.13.17.25.16Z"/></g></svg>